MetropolisNew-Italic.ufo
<glyph name="exclam" format="2">
  <advance width="229"/>
  <unicode hex="0021"/>
  <outline>
    <contour>
      <point x="126" y="193" type="line"/>
      <point x="248" y="687" type="line"/>
      <point x="156" y="687" type="line"/>
      <point x="73" y="193" type="line"/>
    </contour>
    <contour>
      <point x="68" y="-12" type="curve" smooth="yes"/>
      <point x="99" y="-12"/>
      <point x="127" y="17"/>
      <point x="127" y="49" type="curve" smooth="yes"/>
      <point x="127" y="75"/>
      <point x="108" y="96"/>
      <point x="80" y="96" type="curve" smooth="yes"/>
      <point x="50" y="96"/>
      <point x="20" y="72"/>
      <point x="20" y="36" type="curve" smooth="yes"/>
      <point x="20" y="9"/>
      <point x="39" y="-12"/>
    </contour>
  </outline>
</glyph>
<glyph name="numbersign" format="2">
  <advance width="691"/>
  <unicode hex="0023"/>
  <outline>
    <contour>
      <point x="129" y="0" type="line"/>
      <point x="445" y="687" type="line"/>
      <point x="378" y="687" type="line"/>
      <point x="62" y="0" type="line"/>
    </contour>
    <contour>
      <point x="345" y="0" type="line"/>
      <point x="661" y="687" type="line"/>
      <point x="594" y="687" type="line"/>
      <point x="278" y="0" type="line"/>
    </contour>
    <contour>
      <point x="545" y="179" type="line"/>
      <point x="573" y="240" type="line"/>
      <point x="59" y="240" type="line"/>
      <point x="31" y="179" type="line"/>
    </contour>
    <contour>
      <point x="668" y="446" type="line"/>
      <point x="696" y="507" type="line"/>
      <point x="180" y="507" type="line"/>
      <point x="153" y="446" type="line"/>
    </contour>
  </outline>
</glyph>
<glyph name="plus" format="2">
  <advance width="582"/>
  <unicode hex="002B"/>
  <outline>
    <contour>
      <point x="528" y="297" type="line"/>
      <point x="544" y="371" type="line"/>
      <point x="85" y="371" type="line"/>
      <point x="69" y="297" type="line"/>
    </contour>
    <contour>
      <point x="296" y="105" type="line"/>
      <point x="392" y="564" type="line"/>
      <point x="317" y="564" type="line"/>
      <point x="221" y="105" type="line"/>
    </contour>
  </outline>
</glyph>
<glyph name="comma" format="2">
  <advance width="231"/>
  <unicode hex="002C"/>
  <outline>
    <contour>
      <point x="17" y="-135" type="line"/>
      <point x="77" y="-75"/>
      <point x="125" y="-25"/>
      <point x="125" y="35" type="curve" smooth="yes"/>
      <point x="125" y="71"/>
      <point x="107" y="96"/>
      <point x="73" y="96" type="curve" smooth="yes"/>
      <point x="43" y="96"/>
      <point x="13" y="73"/>
      <point x="13" y="36" type="curve" smooth="yes"/>
      <point x="13" y="9"/>
      <point x="32" y="-9"/>
      <point x="57" y="-9" type="curve"/>
      <point x="40" y="-40"/>
      <point x="16" y="-72"/>
      <point x="-18" y="-103" type="curve"/>
    </contour>
  </outline>
</glyph>
<glyph name="hyphen" format="2">
  <advance width="356"/>
  <unicode hex="002D"/>
  <outline>
    <contour>
      <point x="302" y="235" type="line"/>
      <point x="318" y="308" type="line"/>
      <point x="59" y="308" type="line"/>
      <point x="43" y="235" type="line"/>
    </contour>
  </outline>
</glyph>
<glyph name="seven" format="2">
  <advance width="564"/>
  <unicode hex="0037"/>
  <outline>
    <contour>
      <point x="165" y="0" type="line"/>
      <point x="592" y="628" type="line"/>
      <point x="603" y="687" type="line"/>
      <point x="138" y="687" type="line"/>
      <point x="123" y="613" type="line"/>
      <point x="494" y="613" type="line"/>
      <point x="74" y="0" type="line"/>
    </contour>
  </outline>
</glyph>
<glyph name="nine" format="2">
  <advance width="611"/>
  <unicode hex="0039"/>
  <outline>
    <contour>
      <point x="381" y="699" type="curve" smooth="yes"/>
      <point x="227" y="699"/>
      <point x="93" y="579"/>
      <point x="93" y="428" type="curve" smooth="yes"/>
      <point x="93" y="320"/>
      <point x="176" y="258"/>
      <point x="288" y="258" type="curve" smooth="yes"/>
      <point x="374" y="258"/>
      <point x="459" y="302"/>
      <point x="515" y="381" type="curve"/>
      <point x="518" y="487" type="line"/>
      <point x="495" y="394"/>
      <point x="405" y="325"/>
      <point x="305" y="325" type="curve" smooth="yes"/>
      <point x="226" y="325"/>
      <point x="171" y="366"/>
      <point x="171" y="437" type="curve" smooth="yes"/>
      <point x="171" y="536"/>
      <point x="269" y="632"/>
      <point x="379" y="632" type="curve" smooth="yes"/>
      <point x="471" y="632"/>
      <point x="510" y="562"/>
      <point x="510" y="463" type="curve" smooth="yes"/>
      <point x="510" y="285"/>
      <point x="388" y="59"/>
      <point x="232" y="59" type="curve" smooth="yes"/>
      <point x="169" y="59"/>
      <point x="131" y="87"/>
      <point x="96" y="129" type="curve"/>
      <point x="45" y="72" type="line"/>
      <point x="86" y="23"/>
      <point x="140" y="-12"/>
      <point x="227" y="-12" type="curve" smooth="yes"/>
      <point x="431" y="-12"/>
      <point x="588" y="241"/>
      <point x="588" y="471" type="curve" smooth="yes"/>
      <point x="588" y="605"/>
      <point x="528" y="699"/>
    </contour>
  </outline>
</glyph>
<glyph name="less" format="2">
  <advance width="583"/>
  <unicode hex="003C"/>
  <outline>
    <contour>
      <point x="494" y="159" type="line"/>
      <point x="152" y="344" type="line"/>
      <point x="572" y="529" type="line"/>
      <point x="586" y="599" type="line"/>
      <point x="84" y="373" type="line"/>
      <point x="72" y="314" type="line"/>
      <point x="480" y="88" type="line"/>
    </contour>
  </outline>
</glyph>
<glyph name="equal" format="2">
  <advance width="628"/>
  <unicode hex="003D"/>
  <outline>
    <contour>
      <point x="574" y="407" type="line"/>
      <point x="590" y="481" type="line"/>
      <point x="131" y="481" type="line"/>
      <point x="115" y="407" type="line"/>
    </contour>
    <contour>
      <point x="528" y="187" type="line"/>
      <point x="544" y="261" type="line"/>
      <point x="85" y="261" type="line"/>
      <point x="69" y="187" type="line"/>
    </contour>
  </outline>
</glyph>
<glyph name="greater" format="2">
  <advance width="582"/>
  <unicode hex="003E"/>
  <outline>
    <contour>
      <point x="534" y="314" type="line"/>
      <point x="546" y="373" type="line"/>
      <point x="138" y="599" type="line"/>
      <point x="124" y="529" type="line"/>
      <point x="466" y="344" type="line"/>
      <point x="46" y="159" type="line"/>
      <point x="32" y="88" type="line"/>
    </contour>
  </outline>
</glyph>
<glyph name="A" format="2">
  <advance width="785"/>
  <unicode hex="0041"/>
  <anchor x="684" y="0" name="bottom"/>
  <anchor x="482" y="687" name="top"/>
  <outline>
    <contour>
      <point x="576" y="156" type="line"/>
      <point x="591" y="230" type="line"/>
      <point x="162" y="230" type="line"/>
      <point x="147" y="156" type="line"/>
    </contour>
    <contour>
      <point x="439" y="687" type="line"/>
      <point x="-7" y="0" type="line"/>
      <point x="80" y="0" type="line"/>
      <point x="525" y="687" type="line"/>
    </contour>
    <contour>
      <point x="440" y="687" type="line"/>
      <point x="601" y="0" type="line"/>
      <point x="684" y="0" type="line"/>
      <point x="524" y="687" type="line"/>
    </contour>
  </outline>
</glyph>
<glyph name="C" format="2">
  <advance width="704"/>
  <unicode hex="0043"/>
  <anchor x="356" y="0" name="bottom"/>
  <anchor x="496" y="687" name="top"/>
  <outline>
    <contour>
      <point x="354" y="-12" type="curve" smooth="yes"/>
      <point x="437" y="-12"/>
      <point x="548" y="31"/>
      <point x="621" y="91" type="curve"/>
      <point x="576" y="149" type="line"/>
      <point x="517" y="97"/>
      <point x="431" y="60"/>
      <point x="368" y="60" type="curve" smooth="yes"/>
      <point x="247" y="60"/>
      <point x="145" y="161"/>
      <point x="145" y="280" type="curve" smooth="yes"/>
      <point x="145" y="468"/>
      <point x="301" y="627"/>
      <point x="487" y="627" type="curve" smooth="yes"/>
      <point x="553" y="627"/>
      <point x="625" y="592"/>
      <point x="662" y="542" type="curve"/>
      <point x="723" y="592" type="line"/>
      <point x="673" y="655"/>
      <point x="582" y="699"/>
      <point x="502" y="699" type="curve" smooth="yes"/>
      <point x="266" y="699"/>
      <point x="67" y="507"/>
      <point x="67" y="280" type="curve" smooth="yes"/>
      <point x="67" y="121"/>
      <point x="198" y="-12"/>
    </contour>
  </outline>
</glyph>
<glyph name="I" format="2">
  <advance width="234"/>
  <unicode hex="0049"/>
  <anchor x="102" y="0" name="bottom"/>
  <anchor x="206" y="687" name="top"/>
  <outline>
    <contour>
      <point x="102" y="0" type="line"/>
      <point x="245" y="687" type="line"/>
      <point x="167" y="687" type="line"/>
      <point x="24" y="0" type="line"/>
    </contour>
  </outline>
</glyph>
<glyph name="N" format="2">
  <advance width="738"/>
  <unicode hex="004E"/>
  <anchor x="315" y="0" name="bottom"/>
  <anchor x="457" y="687" name="top"/>
  <outline>
    <contour>
      <point x="102" y="0" type="line"/>
      <point x="220" y="559" type="line"/>
      <point x="530" y="0" type="line"/>
      <point x="606" y="0" type="line"/>
      <point x="749" y="687" type="line"/>
      <point x="671" y="687" type="line"/>
      <point x="554" y="128" type="line"/>
      <point x="244" y="687" type="line"/>
      <point x="167" y="687" type="line"/>
      <point x="24" y="0" type="line"/>
    </contour>
  </outline>
</glyph>
<glyph name="Q" format="2">
  <advance width="816"/>
  <unicode hex="0051"/>
  <anchor x="508" y="687" name="top"/>
  <outline>
    <contour>
      <point x="710" y="51" type="line"/>
      <point x="500" y="271" type="line"/>
      <point x="446" y="220" type="line"/>
      <point x="656" y="0" type="line"/>
    </contour>
    <contour>
      <point x="352" y="-12" type="curve" smooth="yes"/>
      <point x="590" y="-12"/>
      <point x="784" y="178"/>
      <point x="784" y="410" type="curve" smooth="yes"/>
      <point x="784" y="581"/>
      <point x="668" y="699"/>
      <point x="499" y="699" type="curve" smooth="yes"/>
      <point x="261" y="699"/>
      <point x="67" y="509"/>
      <point x="67" y="277" type="curve" smooth="yes"/>
      <point x="67" y="106"/>
      <point x="183" y="-12"/>
    </contour>
    <contour>
      <point x="367" y="60" type="curve" smooth="yes"/>
      <point x="236" y="60"/>
      <point x="146" y="151"/>
      <point x="146" y="283" type="curve" smooth="yes"/>
      <point x="146" y="472"/>
      <point x="299" y="627"/>
      <point x="485" y="627" type="curve" smooth="yes"/>
      <point x="615" y="627"/>
      <point x="705" y="537"/>
      <point x="705" y="407" type="curve" smooth="yes"/>
      <point x="705" y="216"/>
      <point x="553" y="60"/>
    </contour>
  </outline>
</glyph>
<glyph name="R" format="2">
  <advance width="650"/>
  <unicode hex="0052"/>
  <outline>
    <contour>
      <point x="25" y="0" type="line"/>
      <point x="103" y="0" type="line"/>
      <point x="155" y="247" type="line"/>
      <point x="336" y="247" type="line"/>
      <point x="487" y="0" type="line"/>
      <point x="573" y="0" type="line"/>
      <point x="419" y="254" type="line"/>
      <point x="539" y="278"/>
      <point x="657" y="368"/>
      <point x="657" y="500" type="curve" smooth="yes"/>
      <point x="657" y="622"/>
      <point x="556" y="687"/>
      <point x="443" y="687" type="curve" smooth="yes"/>
      <point x="168" y="687" type="line"/>
    </contour>
    <contour>
      <point x="170" y="321" type="line"/>
      <point x="231" y="613" type="line"/>
      <point x="427" y="613" type="line" smooth="yes"/>
      <point x="497" y="613"/>
      <point x="580" y="580"/>
      <point x="580" y="499" type="curve" smooth="yes"/>
      <point x="580" y="387"/>
      <point x="469" y="321"/>
      <point x="367" y="321" type="curve" smooth="yes"/>
    </contour>
  </outline>
</glyph>
<glyph name="U" format="2">
  <advance width="710"/>
  <unicode hex="0055"/>
  <anchor x="317" y="0" name="bottom"/>
  <anchor x="442" y="687" name="top"/>
  <outline>
    <contour>
      <point x="300" y="-12" type="curve" smooth="yes"/>
      <point x="468" y="-12"/>
      <point x="611" y="110"/>
      <point x="647" y="282" type="curve" smooth="yes"/>
      <point x="731" y="687" type="line"/>
      <point x="653" y="687" type="line"/>
      <point x="570" y="288" type="line" smooth="yes"/>
      <point x="543" y="154"/>
      <point x="437" y="59"/>
      <point x="314" y="59" type="curve" smooth="yes"/>
      <point x="192" y="59"/>
      <point x="124" y="151"/>
      <point x="151" y="282" type="curve" smooth="yes"/>
      <point x="235" y="687" type="line"/>
      <point x="157" y="687" type="line"/>
      <point x="74" y="288" type="line" smooth="yes"/>
      <point x="38" y="112"/>
      <point x="131" y="-12"/>
    </contour>
  </outline>
</glyph>
<glyph name="W" format="2">
  <advance width="1101"/>
  <unicode hex="0057"/>
  <anchor x="639" y="687" name="top"/>
  <outline>
    <contour>
      <point x="305" y="0" type="line"/>
      <point x="620" y="585" type="line"/>
      <point x="688" y="0" type="line"/>
      <point x="765" y="0" type="line"/>
      <point x="1143" y="687" type="line"/>
      <point x="1054" y="687" type="line"/>
      <point x="747" y="131" type="line"/>
      <point x="682" y="687" type="line"/>
      <point x="595" y="687" type="line"/>
      <point x="296" y="131" type="line"/>
      <point x="223" y="687" type="line"/>
      <point x="136" y="687" type="line"/>
      <point x="228" y="0" type="line"/>
    </contour>
  </outline>
</glyph>
<glyph name="X" format="2">
  <advance width="720"/>
  <unicode hex="0058"/>
  <outline>
    <contour>
      <point x="140" y="687" type="line"/>
      <point x="233" y="687" type="line"/>
      <point x="615" y="0" type="line"/>
      <point x="522" y="0" type="line"/>
    </contour>
    <contour>
      <point x="663" y="687" type="line"/>
      <point x="761" y="687" type="line"/>
      <point x="92" y="0" type="line"/>
      <point x="-6" y="0" type="line"/>
    </contour>
  </outline>
</glyph>
<glyph name="backslash" format="2">
  <advance width="488"/>
  <unicode hex="005C"/>
  <outline>
    <contour>
      <point x="392" y="-74" type="line"/>
      <point x="211" y="743" type="line"/>
      <point x="128" y="743" type="line"/>
      <point x="309" y="-74" type="line"/>
    </contour>
  </outline>
</glyph>
<glyph name="bracketright" format="2">
  <advance width="366"/>
  <unicode hex="005D"/>
  <outline>
    <contour>
      <point x="210" y="-115" type="line"/>
      <point x="386" y="734" type="line"/>
      <point x="150" y="734" type="line"/>
      <point x="138" y="677" type="line"/>
      <point x="308" y="677" type="line"/>
      <point x="155" y="-58" type="line"/>
      <point x="-15" y="-58" type="line"/>
      <point x="-26" y="-115" type="line"/>
    </contour>
  </outline>
</glyph>
<glyph name="underscore" format="2">
  <advance width="692"/>
  <unicode hex="005F"/>
  <outline>
    <contour>
      <point x="561" y="-142" type="line"/>
      <point x="575" y="-75" type="line"/>
      <point x="-21" y="-75" type="line"/>
      <point x="-35" y="-142" type="line"/>
    </contour>
  </outline>
</glyph>
<glyph name="grave" format="2">
  <advance width="258"/>
  <unicode hex="0060"/>
  <anchor x="251" y="517" name="_top"/>
  <anchor x="289" y="704" name="top"/>
  <outline>
    <contour>
      <point x="294" y="576" type="line"/>
      <point x="203" y="720" type="line"/>
      <point x="122" y="702" type="line"/>
      <point x="238" y="576" type="line"/>
    </contour>
  </outline>
</glyph>
<glyph name="a" format="2">
  <advance width="527"/>
  <unicode hex="0061"/>
  <anchor x="424" y="0" name="bottom"/>
  <anchor x="326" y="517" name="top"/>
  <outline>
    <contour>
      <point x="424" y="0" type="line"/>
      <point x="488" y="311"/>
      <point x="495" y="328"/>
      <point x="495" y="371" type="curve" smooth="yes"/>
      <point x="495" y="465"/>
      <point x="439" y="529"/>
      <point x="319" y="529" type="curve" smooth="yes"/>
      <point x="272" y="529"/>
      <point x="208" y="517"/>
      <point x="126" y="480" type="curve"/>
      <point x="149" y="417" type="line"/>
      <point x="200" y="441"/>
      <point x="257" y="465"/>
      <point x="312" y="465" type="curve" smooth="yes"/>
      <point x="397" y="465"/>
      <point x="421" y="418"/>
      <point x="421" y="365" type="curve" smooth="yes"/>
      <point x="421" y="333"/>
      <point x="418" y="331"/>
      <point x="349" y="0" type="curve"/>
    </contour>
    <contour>
      <point x="170" y="-12" type="curve" smooth="yes"/>
      <point x="250" y="-12"/>
      <point x="353" y="32"/>
      <point x="392" y="120" type="curve"/>
      <point x="382" y="165" type="line"/>
      <point x="348" y="92"/>
      <point x="257" y="54"/>
      <point x="186" y="54" type="curve" smooth="yes"/>
      <point x="124" y="54"/>
      <point x="81" y="81"/>
      <point x="81" y="130" type="curve" smooth="yes"/>
      <point x="81" y="205"/>
      <point x="166" y="262"/>
      <point x="253" y="262" type="curve" smooth="yes"/>
      <point x="321" y="262"/>
      <point x="382" y="251"/>
      <point x="433" y="231" type="curve"/>
      <point x="439" y="283" type="line"/>
      <point x="383" y="307"/>
      <point x="314" y="325"/>
      <point x="244" y="325" type="curve" smooth="yes"/>
      <point x="123" y="325"/>
      <point x="8" y="243"/>
      <point x="8" y="121" type="curve" smooth="yes"/>
      <point x="8" y="39"/>
      <point x="73" y="-12"/>
    </contour>
  </outline>
</glyph>
<glyph name="h" format="2">
  <advance width="546"/>
  <unicode hex="0068"/>
  <outline>
    <contour>
      <point x="80" y="0" type="line"/>
      <point x="225" y="699" type="line"/>
      <point x="150" y="699" type="line"/>
      <point x="5" y="0" type="line"/>
    </contour>
    <contour>
      <point x="442" y="0" type="line"/>
      <point x="507" y="311"/>
      <point x="515" y="336"/>
      <point x="515" y="374" type="curve" smooth="yes"/>
      <point x="515" y="466"/>
      <point x="453" y="529"/>
      <point x="353" y="529" type="curve" smooth="yes"/>
      <point x="260" y="529"/>
      <point x="164" y="463"/>
      <point x="142" y="382" type="curve"/>
      <point x="147" y="326" type="line"/>
      <point x="162" y="398"/>
      <point x="250" y="462"/>
      <point x="340" y="462" type="curve" smooth="yes"/>
      <point x="401" y="462"/>
      <point x="438" y="423"/>
      <point x="438" y="361" type="curve" smooth="yes"/>
      <point x="438" y="330"/>
      <point x="431" y="308"/>
      <point x="367" y="0" type="curve"/>
    </contour>
  </outline>
</glyph>
<glyph name="l" format="2">
  <advance width="193"/>
  <unicode hex="006C"/>
  <anchor x="73" y="0" name="bottom"/>
  <anchor x="187" y="699" name="top"/>
  <outline>
    <contour>
      <point x="80" y="0" type="line"/>
      <point x="225" y="699" type="line"/>
      <point x="150" y="699" type="line"/>
      <point x="5" y="0" type="line"/>
    </contour>
  </outline>
</glyph>
<glyph name="m" format="2">
  <advance width="850"/>
  <unicode hex="006D"/>
  <anchor x="78" y="0" name="bottom"/>
  <anchor x="149" y="517" name="top"/>
  <outline>
    <contour>
      <point x="78" y="0" type="line"/>
      <point x="186" y="517" type="line"/>
      <point x="111" y="517" type="line"/>
      <point x="3" y="0" type="line"/>
    </contour>
    <contour>
      <point x="412" y="0" type="line"/>
      <point x="479" y="320"/>
      <point x="486" y="344"/>
      <point x="486" y="376" type="curve" smooth="yes"/>
      <point x="486" y="467"/>
      <point x="427" y="529"/>
      <point x="334" y="529" type="curve" smooth="yes"/>
      <point x="245" y="529"/>
      <point x="166" y="472"/>
      <point x="142" y="382" type="curve"/>
      <point x="146" y="326" type="line"/>
      <point x="162" y="406"/>
      <point x="240" y="462"/>
      <point x="316" y="462" type="curve" smooth="yes"/>
      <point x="378" y="462"/>
      <point x="409" y="424"/>
      <point x="409" y="359" type="curve" smooth="yes"/>
      <point x="409" y="339"/>
      <point x="406" y="331"/>
      <point x="337" y="0" type="curve"/>
    </contour>
    <contour>
      <point x="746" y="0" type="line"/>
      <point x="813" y="320"/>
      <point x="820" y="344"/>
      <point x="820" y="376" type="curve" smooth="yes"/>
      <point x="820" y="467"/>
      <point x="761" y="529"/>
      <point x="668" y="529" type="curve" smooth="yes"/>
      <point x="579" y="529"/>
      <point x="500" y="472"/>
      <point x="476" y="382" type="curve"/>
      <point x="480" y="326" type="line"/>
      <point x="496" y="406"/>
      <point x="574" y="462"/>
      <point x="650" y="462" type="curve" smooth="yes"/>
      <point x="712" y="462"/>
      <point x="743" y="424"/>
      <point x="743" y="359" type="curve" smooth="yes"/>
      <point x="743" y="339"/>
      <point x="740" y="331"/>
      <point x="671" y="0" type="curve"/>
    </contour>
  </outline>
</glyph>
<glyph name="s" format="2">
  <advance width="464"/>
  <unicode hex="0073"/>
  <anchor x="184" y="0" name="bottom"/>
  <anchor x="292" y="517" name="top"/>
  <outline>
    <contour>
      <point x="189" y="-12" type="curve" smooth="yes"/>
      <point x="309" y="-12"/>
      <point x="409" y="70"/>
      <point x="409" y="165" type="curve" smooth="yes"/>
      <point x="409" y="226"/>
      <point x="351" y="278"/>
      <point x="264" y="294" type="curve"/>
      <point x="197" y="315"/>
      <point x="152" y="345"/>
      <point x="152" y="382" type="curve" smooth="yes"/>
      <point x="152" y="423"/>
      <point x="206" y="462"/>
      <point x="279" y="462" type="curve" smooth="yes"/>
      <point x="327" y="462"/>
      <point x="383" y="443"/>
      <point x="418" y="415" type="curve"/>
      <point x="462" y="469" type="line"/>
      <point x="416" y="505"/>
      <point x="345" y="529"/>
      <point x="278" y="529" type="curve" smooth="yes"/>
      <point x="163" y="529"/>
      <point x="76" y="457"/>
      <point x="76" y="364" type="curve" smooth="yes"/>
      <point x="76" y="298"/>
      <point x="136" y="245"/>
      <point x="226" y="232" type="curve"/>
      <point x="290" y="216"/>
      <point x="333" y="185"/>
      <point x="333" y="147" type="curve" smooth="yes"/>
      <point x="333" y="101"/>
      <point x="269" y="55"/>
      <point x="194" y="55" type="curve" smooth="yes"/>
      <point x="141" y="55"/>
      <point x="78" y="80"/>
      <point x="36" y="118" type="curve"/>
      <point x="-11" y="67" type="line"/>
      <point x="37" y="20"/>
      <point x="117" y="-12"/>
    </contour>
  </outline>
</glyph>
<glyph name="t" format="2">
  <advance width="365"/>
  <unicode hex="0074"/>
  <anchor x="179" y="0" name="bottom"/>
  <outline>
    <contour>
      <point x="186" y="-12" type="curve" smooth="yes"/>
      <point x="219" y="-12"/>
      <point x="254" y="-2"/>
      <point x="286" y="19" type="curve"/>
      <point x="256" y="78" type="line"/>
      <point x="244" y="66"/>
      <point x="220" y="55"/>
      <point x="194" y="55" type="curve" smooth="yes"/>
      <point x="171" y="55"/>
      <point x="155" y="72"/>
      <point x="155" y="100" type="curve" smooth="yes"/>
      <point x="155" y="110"/>
      <point x="150" y="82"/>
      <point x="270" y="659" type="curve"/>
      <point x="195" y="659" type="line"/>
      <point x="86" y="138"/>
      <point x="80" y="121"/>
      <point x="80" y="92" type="curve" smooth="yes"/>
      <point x="80" y="31"/>
      <point x="121" y="-12"/>
    </contour>
    <contour>
      <point x="353" y="450" type="line"/>
      <point x="367" y="517" type="line"/>
      <point x="84" y="517" type="line"/>
      <point x="70" y="450" type="line"/>
    </contour>
  </outline>
</glyph>
<glyph name="y" format="2">
  <advance width="572"/>
  <unicode hex="0079"/>
  <anchor x="344" y="517" name="top"/>
  <outline>
    <contour>
      <point x="64" y="-180" type="curve" smooth="yes"/>
      <point x="131" y="-180"/>
      <point x="188" y="-149"/>
      <point x="242" y="-61" type="curve" smooth="yes"/>
      <point x="598" y="517" type="line"/>
      <point x="515" y="517" type="line"/>
      <point x="254" y="87" type="line"/>
      <point x="163" y="517" type="line"/>
      <point x="82" y="517" type="line"/>
      <point x="198" y="-2" type="line"/>
      <point x="153" y="-63" type="line"/>
      <point x="126" y="-99"/>
      <point x="100" y="-112"/>
      <point x="64" y="-112" type="curve" smooth="yes"/>
      <point x="46" y="-112"/>
      <point x="25" y="-109"/>
      <point x="9" y="-100" type="curve"/>
      <point x="-17" y="-162" type="line"/>
      <point x="5" y="-173"/>
      <point x="32" y="-180"/>
    </contour>
  </outline>
</glyph>
<glyph name="currency" format="2">
  <advance width="700"/>
  <unicode hex="00A4"/>
  <outline>
    <contour>
      <point x="205" y="518" type="line"/>
      <point x="87" y="635" type="line"/>
      <point x="44" y="588" type="line"/>
      <point x="160" y="471" type="line"/>
    </contour>
    <contour>
      <point x="677" y="588" type="line"/>
      <point x="633" y="635" type="line"/>
      <point x="516" y="518" type="line"/>
      <point x="560" y="471" type="line"/>
    </contour>
    <contour>
      <point x="677" y="47" type="line"/>
      <point x="560" y="164" type="line"/>
      <point x="516" y="117" type="line"/>
      <point x="633" y="0" type="line"/>
    </contour>
    <contour>
      <point x="205" y="117" type="line"/>
      <point x="160" y="164" type="line"/>
      <point x="44" y="47" type="line"/>
      <point x="87" y="0" type="line"/>
    </contour>
    <contour>
      <point x="360" y="53" type="curve" smooth="yes"/>
      <point x="512" y="53"/>
      <point x="635" y="172"/>
      <point x="635" y="318" type="curve" smooth="yes"/>
      <point x="635" y="465"/>
      <point x="512" y="585"/>
      <point x="360" y="585" type="curve" smooth="yes"/>
      <point x="210" y="585"/>
      <point x="87" y="465"/>
      <point x="87" y="318" type="curve" smooth="yes"/>
      <point x="87" y="172"/>
      <point x="210" y="53"/>
    </contour>
    <contour>
      <point x="360" y="116" type="curve" smooth="yes"/>
      <point x="244" y="116"/>
      <point x="149" y="207"/>
      <point x="149" y="318" type="curve" smooth="yes"/>
      <point x="149" y="431"/>
      <point x="244" y="523"/>
      <point x="360" y="523" type="curve" smooth="yes"/>
      <point x="477" y="523"/>
      <point x="574" y="431"/>
      <point x="574" y="318" type="curve" smooth="yes"/>
      <point x="574" y="207"/>
      <point x="477" y="116"/>
    </contour>
  </outline>
</glyph>
<glyph name="brokenbar" format="2">
  <advance width="233"/>
  <unicode hex="00A6"/>
  <outline>
    <contour>
      <point x="178" y="392" type="line"/>
      <point x="248" y="742" type="line"/>
      <point x="179" y="742" type="line"/>
      <point x="109" y="392" type="line"/>
    </contour>
    <contour>
      <point x="61" y="-194" type="line"/>
      <point x="131" y="156" type="line"/>
      <point x="62" y="156" type="line"/>
      <point x="-8" y="-194" type="line"/>
    </contour>
  </outline>
</glyph>
<glyph name="section" format="2">
  <advance width="464"/>
  <unicode hex="00A7"/>
  <anchor x="244" y="0" name="bottom"/>
  <anchor x="352" y="517" name="top"/>
  <outline>
    <contour>
      <point x="361" y="191" type="line"/>
      <point x="413" y="219"/>
      <point x="448" y="276"/>
      <point x="448" y="332" type="curve" smooth="yes"/>
      <point x="448" y="392"/>
      <point x="390" y="443"/>
      <point x="303" y="460" type="curve"/>
      <point x="236" y="481"/>
      <point x="191" y="511"/>
      <point x="191" y="548" type="curve" smooth="yes"/>
      <point x="191" y="589"/>
      <point x="245" y="628"/>
      <point x="318" y="628" type="curve" smooth="yes"/>
      <point x="366" y="628"/>
      <point x="422" y="609"/>
      <point x="457" y="581" type="curve"/>
      <point x="501" y="635" type="line"/>
      <point x="455" y="671"/>
      <point x="384" y="695"/>
      <point x="317" y="695" type="curve" smooth="yes"/>
      <point x="202" y="695"/>
      <point x="115" y="623"/>
      <point x="115" y="530" type="curve" smooth="yes"/>
      <point x="115" y="464"/>
      <point x="175" y="411"/>
      <point x="265" y="398" type="curve"/>
      <point x="329" y="382"/>
      <point x="372" y="351"/>
      <point x="372" y="315" type="curve" smooth="yes"/>
      <point x="372" y="290"/>
      <point x="351" y="261"/>
      <point x="319" y="243" type="curve"/>
    </contour>
    <contour>
      <point x="189" y="-12" type="curve" smooth="yes"/>
      <point x="309" y="-12"/>
      <point x="409" y="70"/>
      <point x="409" y="165" type="curve" smooth="yes"/>
      <point x="409" y="226"/>
      <point x="351" y="278"/>
      <point x="264" y="294" type="curve"/>
      <point x="197" y="315"/>
      <point x="152" y="345"/>
      <point x="152" y="382" type="curve" smooth="yes"/>
      <point x="152" y="405"/>
      <point x="168" y="427"/>
      <point x="195" y="442" type="curve"/>
      <point x="157" y="498" type="line"/>
      <point x="107" y="468"/>
      <point x="76" y="420"/>
      <point x="76" y="364" type="curve" smooth="yes"/>
      <point x="76" y="298"/>
      <point x="136" y="245"/>
      <point x="226" y="232" type="curve"/>
      <point x="290" y="216"/>
      <point x="333" y="185"/>
      <point x="333" y="147" type="curve" smooth="yes"/>
      <point x="333" y="101"/>
      <point x="269" y="55"/>
      <point x="194" y="55" type="curve" smooth="yes"/>
      <point x="141" y="55"/>
      <point x="78" y="80"/>
      <point x="36" y="118" type="curve"/>
      <point x="-11" y="67" type="line"/>
      <point x="37" y="20"/>
      <point x="117" y="-12"/>
    </contour>
  </outline>
</glyph>
<glyph name="ordfeminine" format="2">
  <advance width="326"/>
  <unicode hex="00AA"/>
  <anchor x="306" y="377" name="bottom"/>
  <anchor x="236" y="687" name="top"/>
  <outline>
    <contour>
      <point x="306" y="377" type="line"/>
      <point x="344" y="560"/>
      <point x="349" y="571"/>
      <point x="349" y="594" type="curve" smooth="yes"/>
      <point x="349" y="655"/>
      <point x="307" y="694"/>
      <point x="235" y="694" type="curve" smooth="yes"/>
      <point x="200" y="694"/>
      <point x="158" y="685"/>
      <point x="109" y="663" type="curve"/>
      <point x="128" y="611" type="line"/>
      <point x="156" y="624"/>
      <point x="187" y="636"/>
      <point x="220" y="636" type="curve" smooth="yes"/>
      <point x="263" y="636"/>
      <point x="279" y="615"/>
      <point x="279" y="588" type="curve" smooth="yes"/>
      <point x="279" y="574"/>
      <point x="280" y="583"/>
      <point x="237" y="377" type="curve"/>
    </contour>
    <contour>
      <point x="142" y="370" type="curve" smooth="yes"/>
      <point x="189" y="370"/>
      <point x="246" y="395"/>
      <point x="269" y="446" type="curve"/>
      <point x="257" y="478" type="line"/>
      <point x="242" y="443"/>
      <point x="197" y="422"/>
      <point x="159" y="422" type="curve" smooth="yes"/>
      <point x="130" y="422"/>
      <point x="110" y="435"/>
      <point x="110" y="457" type="curve" smooth="yes"/>
      <point x="110" y="493"/>
      <point x="152" y="522"/>
      <point x="195" y="522" type="curve" smooth="yes"/>
      <point x="226" y="522"/>
      <point x="255" y="518"/>
      <point x="279" y="507" type="curve"/>
      <point x="294" y="544" type="line"/>
      <point x="263" y="560"/>
      <point x="224" y="572"/>
      <point x="185" y="572" type="curve" smooth="yes"/>
      <point x="112" y="572"/>
      <point x="42" y="525"/>
      <point x="42" y="453" type="curve" smooth="yes"/>
      <point x="42" y="402"/>
      <point x="83" y="370"/>
    </contour>
  </outline>
</glyph>
<glyph name="macron" format="2">
  <advance width="404"/>
  <unicode hex="00AF"/>
  <anchor x="253" y="517" name="_top"/>
  <anchor x="291" y="704" name="top"/>
  <outline>
    <contour>
      <point x="427" y="594" type="line"/>
      <point x="438" y="649" type="line"/>
      <point x="128" y="649" type="line"/>
      <point x="117" y="594" type="line"/>
    </contour>
  </outline>
</glyph>
<glyph name="plusminus" format="2">
  <advance width="592"/>
  <unicode hex="00B1"/>
  <outline>
    <contour>
      <point x="454" y="0" type="line"/>
      <point x="466" y="64" type="line"/>
      <point x="29" y="64" type="line"/>
      <point x="17" y="0" type="line"/>
    </contour>
    <contour>
      <point x="303" y="175" type="line"/>
      <point x="387" y="595" type="line"/>
      <point x="320" y="595" type="line"/>
      <point x="236" y="175" type="line"/>
    </contour>
    <contour>
      <point x="524" y="353" type="line"/>
      <point x="537" y="416" type="line"/>
      <point x="99" y="416" type="line"/>
      <point x="87" y="353" type="line"/>
    </contour>
  </outline>
</glyph>
<glyph name="two.superior" format="2">
  <advance width="366"/>
  <unicode hex="00B2"/>
  <outline>
    <contour>
      <point x="301" y="275" type="line"/>
      <point x="315" y="342" type="line"/>
      <point x="127" y="342" type="line"/>
      <point x="232" y="412" type="line" smooth="yes"/>
      <point x="303" y="461"/>
      <point x="359" y="513"/>
      <point x="359" y="589" type="curve" smooth="yes"/>
      <point x="359" y="653"/>
      <point x="309" y="694"/>
      <point x="235" y="694" type="curve" smooth="yes"/>
      <point x="172" y="694"/>
      <point x="117" y="668"/>
      <point x="68" y="617" type="curve"/>
      <point x="110" y="568" type="line"/>
      <point x="146" y="604"/>
      <point x="184" y="628"/>
      <point x="229" y="628" type="curve" smooth="yes"/>
      <point x="261" y="628"/>
      <point x="285" y="612"/>
      <point x="285" y="582" type="curve" smooth="yes"/>
      <point x="285" y="537"/>
      <point x="237" y="494"/>
      <point x="187" y="458" type="curve" smooth="yes"/>
      <point x="11" y="335" type="line"/>
      <point x="0" y="275" type="line"/>
    </contour>
  </outline>
</glyph>
<glyph name="three.superior" format="2">
  <advance width="367"/>
  <unicode hex="00B3"/>
  <outline>
    <contour>
      <point x="154" y="268" type="curve" smooth="yes"/>
      <point x="246" y="268"/>
      <point x="329" y="322"/>
      <point x="329" y="405" type="curve" smooth="yes"/>
      <point x="329" y="451"/>
      <point x="295" y="477"/>
      <point x="260" y="485" type="curve"/>
      <point x="318" y="501"/>
      <point x="360" y="541"/>
      <point x="360" y="598" type="curve" smooth="yes"/>
      <point x="360" y="655"/>
      <point x="311" y="694"/>
      <point x="231" y="694" type="curve" smooth="yes"/>
      <point x="164" y="694"/>
      <point x="111" y="665"/>
      <point x="70" y="624" type="curve"/>
      <point x="107" y="575" type="line"/>
      <point x="141" y="607"/>
      <point x="178" y="629"/>
      <point x="222" y="629" type="curve" smooth="yes"/>
      <point x="261" y="629"/>
      <point x="286" y="612"/>
      <point x="285" y="584" type="curve" smooth="yes"/>
      <point x="283" y="542"/>
      <point x="239" y="514"/>
      <point x="187" y="514" type="curve"/>
      <point x="143" y="514" type="line"/>
      <point x="129" y="451" type="line"/>
      <point x="178" y="451" type="line"/>
      <point x="230" y="452"/>
      <point x="257" y="438"/>
      <point x="257" y="411" type="curve" smooth="yes"/>
      <point x="257" y="366"/>
      <point x="209" y="333"/>
      <point x="155" y="333" type="curve" smooth="yes"/>
      <point x="113" y="333"/>
      <point x="78" y="351"/>
      <point x="57" y="384" type="curve"/>
      <point x="6" y="340" type="line"/>
      <point x="31" y="299"/>
      <point x="80" y="268"/>
    </contour>
  </outline>
</glyph>
<glyph name="micro" format="2">
  <advance width="623"/>
  <unicode hex="00B5"/>
  <outline>
    <component base="u"/>
    <contour>
      <point x="34" y="-172" type="line"/>
      <point x="116" y="217" type="line"/>
      <point x="41" y="217" type="line"/>
      <point x="-41" y="-172" type="line"/>
    </contour>
  </outline>
</glyph>
<glyph name="one.superior" format="2">
  <advance width="244"/>
  <unicode hex="00B9"/>
  <outline>
    <contour>
      <point x="163" y="275" type="line"/>
      <point x="249" y="687" type="line"/>
      <point x="191" y="687" type="line"/>
      <point x="60" y="609" type="line"/>
      <point x="80" y="557" type="line"/>
      <point x="159" y="602" type="line"/>
      <point x="90" y="275" type="line"/>
    </contour>
  </outline>
</glyph>
<glyph name="ordmasculine" format="2">
  <advance width="369"/>
  <unicode hex="00BA"/>
  <anchor x="254" y="687" name="top"/>
  <outline>
    <contour>
      <point x="192" y="370" type="curve" smooth="yes"/>
      <point x="302" y="370"/>
      <point x="393" y="456"/>
      <point x="393" y="559" type="curve" smooth="yes"/>
      <point x="393" y="635"/>
      <point x="332" y="694"/>
      <point x="254" y="694" type="curve" smooth="yes"/>
      <point x="146" y="694"/>
      <point x="56" y="608"/>
      <point x="56" y="505" type="curve" smooth="yes"/>
      <point x="56" y="429"/>
      <point x="115" y="370"/>
    </contour>
    <contour>
      <point x="200" y="431" type="curve" smooth="yes"/>
      <point x="159" y="431"/>
      <point x="125" y="465"/>
      <point x="125" y="508" type="curve" smooth="yes"/>
      <point x="125" y="576"/>
      <point x="181" y="633"/>
      <point x="247" y="633" type="curve" smooth="yes"/>
      <point x="289" y="633"/>
      <point x="322" y="599"/>
      <point x="322" y="557" type="curve" smooth="yes"/>
      <point x="322" y="488"/>
      <point x="267" y="431"/>
    </contour>
  </outline>
</glyph>
<glyph name="Oslash" format="2">
  <advance width="817"/>
  <unicode hex="00D8"/>
  <anchor x="509" y="687" name="top"/>
  <outline>
    <contour>
      <point x="97" y="0" type="line"/>
      <point x="841" y="687" type="line"/>
      <point x="754" y="687" type="line"/>
      <point x="10" y="0" type="line"/>
    </contour>
    <contour>
      <point x="353" y="-12" type="curve" smooth="yes"/>
      <point x="591" y="-12"/>
      <point x="785" y="178"/>
      <point x="785" y="410" type="curve" smooth="yes"/>
      <point x="785" y="581"/>
      <point x="669" y="699"/>
      <point x="500" y="699" type="curve" smooth="yes"/>
      <point x="262" y="699"/>
      <point x="68" y="509"/>
      <point x="68" y="277" type="curve" smooth="yes"/>
      <point x="68" y="106"/>
      <point x="184" y="-12"/>
    </contour>
    <contour>
      <point x="368" y="60" type="curve" smooth="yes"/>
      <point x="237" y="60"/>
      <point x="147" y="151"/>
      <point x="147" y="283" type="curve" smooth="yes"/>
      <point x="147" y="472"/>
      <point x="300" y="627"/>
      <point x="486" y="627" type="curve" smooth="yes"/>
      <point x="616" y="627"/>
      <point x="706" y="537"/>
      <point x="706" y="407" type="curve" smooth="yes"/>
      <point x="706" y="216"/>
      <point x="554" y="60"/>
    </contour>
  </outline>
</glyph>
<glyph name="Thorn" format="2">
  <advance width="663"/>
  <unicode hex="00DE"/>
  <outline>
    <contour>
      <point x="102" y="0" type="line"/>
      <point x="129" y="126" type="line"/>
      <point x="332" y="126" type="line" smooth="yes"/>
      <point x="490" y="126"/>
      <point x="632" y="237"/>
      <point x="632" y="385" type="curve" smooth="yes"/>
      <point x="632" y="493"/>
      <point x="543" y="566"/>
      <point x="418" y="566" type="curve" smooth="yes"/>
      <point x="222" y="566" type="line"/>
      <point x="247" y="687" type="line"/>
      <point x="167" y="687" type="line"/>
      <point x="24" y="0" type="line"/>
    </contour>
    <contour>
      <point x="205" y="492" type="line"/>
      <point x="395" y="492" type="line" smooth="yes"/>
      <point x="494" y="492"/>
      <point x="554" y="452"/>
      <point x="554" y="381" type="curve" smooth="yes"/>
      <point x="554" y="274"/>
      <point x="451" y="200"/>
      <point x="328" y="200" type="curve" smooth="yes"/>
      <point x="144" y="200" type="line"/>
    </contour>
  </outline>
</glyph>
<glyph name="dcaron" format="2">
  <advance width="739"/>
  <unicode hex="010F"/>
  <outline>
    <contour>
      <point x="224" y="-12" type="curve" smooth="yes"/>
      <point x="379" y="-12"/>
      <point x="509" y="145"/>
      <point x="509" y="331" type="curve" smooth="yes"/>
      <point x="509" y="438"/>
      <point x="430" y="529"/>
      <point x="336" y="529" type="curve" smooth="yes"/>
      <point x="170" y="529"/>
      <point x="30" y="376"/>
      <point x="30" y="194" type="curve" smooth="yes"/>
      <point x="30" y="82"/>
      <point x="119" y="-12"/>
    </contour>
    <contour>
      <point x="238" y="55" type="curve" smooth="yes"/>
      <point x="167" y="55"/>
      <point x="108" y="121"/>
      <point x="108" y="199" type="curve" smooth="yes"/>
      <point x="108" y="342"/>
      <point x="206" y="462"/>
      <point x="322" y="462" type="curve" smooth="yes"/>
      <point x="402" y="462"/>
      <point x="470" y="396"/>
      <point x="470" y="318" type="curve" smooth="yes"/>
      <point x="470" y="175"/>
      <point x="364" y="55"/>
    </contour>
    <contour>
      <point x="485" y="0" type="line"/>
      <point x="630" y="699" type="line"/>
      <point x="555" y="699" type="line"/>
      <point x="410" y="0" type="line"/>
    </contour>
    <contour>
      <point x="722" y="504" type="line"/>
      <point x="776" y="559"/>
      <point x="812" y="595"/>
      <point x="812" y="647" type="curve" smooth="yes"/>
      <point x="812" y="678"/>
      <point x="797" y="699"/>
      <point x="768" y="699" type="curve" smooth="yes"/>
      <point x="741" y="699"/>
      <point x="718" y="674"/>
      <point x="718" y="649" type="curve" smooth="yes"/>
      <point x="718" y="626"/>
      <point x="734" y="608"/>
      <point x="756" y="611" type="curve"/>
      <point x="742" y="584"/>
      <point x="720" y="557"/>
      <point x="692" y="531" type="curve"/>
    </contour>
  </outline>
</glyph>
<glyph name="dcroat" format="2">
  <advance width="598"/>
  <unicode hex="0111"/>
  <outline>
    <contour>
      <point x="687" y="585" type="line"/>
      <point x="698" y="635" type="line"/>
      <point x="388" y="635" type="line"/>
      <point x="377" y="585" type="line"/>
    </contour>
    <contour>
      <point x="224" y="-12" type="curve" smooth="yes"/>
      <point x="379" y="-12"/>
      <point x="509" y="145"/>
      <point x="509" y="331" type="curve" smooth="yes"/>
      <point x="509" y="438"/>
      <point x="430" y="529"/>
      <point x="336" y="529" type="curve" smooth="yes"/>
      <point x="170" y="529"/>
      <point x="30" y="376"/>
      <point x="30" y="194" type="curve" smooth="yes"/>
      <point x="30" y="82"/>
      <point x="119" y="-12"/>
    </contour>
    <contour>
      <point x="238" y="55" type="curve" smooth="yes"/>
      <point x="167" y="55"/>
      <point x="108" y="121"/>
      <point x="108" y="199" type="curve" smooth="yes"/>
      <point x="108" y="342"/>
      <point x="206" y="462"/>
      <point x="322" y="462" type="curve" smooth="yes"/>
      <point x="402" y="462"/>
      <point x="470" y="396"/>
      <point x="470" y="318" type="curve" smooth="yes"/>
      <point x="470" y="175"/>
      <point x="364" y="55"/>
    </contour>
    <contour>
      <point x="485" y="0" type="line"/>
      <point x="630" y="699" type="line"/>
      <point x="555" y="699" type="line"/>
      <point x="410" y="0" type="line"/>
    </contour>
  </outline>
</glyph>
<glyph name="Hbar" format="2">
  <advance width="717"/>
  <unicode hex="0126"/>
  <anchor x="358.5" y="874" name="top"/>
  <anchor x="359" y="487" name="_top"/>
  <outline>
    <component base="H"/>
    <contour>
      <point x="741" y="564" type="line"/>
      <point x="753" y="619" type="line"/>
      <point x="96" y="619" type="line"/>
      <point x="84" y="564" type="line"/>
    </contour>
  </outline>
</glyph>
<glyph name="kgreenlandic" format="2">
  <advance width="539"/>
  <unicode hex="0138"/>
  <anchor x="200" y="0" name="bottom"/>
  <outline>
    <contour>
      <point x="80" y="0" type="line"/>
      <point x="187" y="517" type="line"/>
      <point x="112" y="517" type="line"/>
      <point x="5" y="0" type="line"/>
    </contour>
    <contour>
      <point x="97" y="128" type="line"/>
      <point x="545" y="517" type="line"/>
      <point x="447" y="517" type="line"/>
      <point x="117" y="224" type="line"/>
    </contour>
    <contour>
      <point x="213" y="242" type="line"/>
      <point x="351" y="0" type="line"/>
      <point x="442" y="0" type="line"/>
      <point x="275" y="293" type="line"/>
    </contour>
  </outline>
</glyph>
<glyph name="lcaron" format="2">
  <advance width="299"/>
  <unicode hex="013E"/>
  <outline>
    <contour>
      <point x="284" y="504" type="line"/>
      <point x="338" y="559"/>
      <point x="374" y="595"/>
      <point x="374" y="647" type="curve" smooth="yes"/>
      <point x="374" y="678"/>
      <point x="359" y="699"/>
      <point x="330" y="699" type="curve" smooth="yes"/>
      <point x="303" y="699"/>
      <point x="280" y="674"/>
      <point x="280" y="649" type="curve" smooth="yes"/>
      <point x="280" y="626"/>
      <point x="296" y="608"/>
      <point x="318" y="611" type="curve"/>
      <point x="304" y="584"/>
      <point x="282" y="557"/>
      <point x="254" y="531" type="curve"/>
    </contour>
    <contour>
      <point x="80" y="0" type="line"/>
      <point x="225" y="699" type="line"/>
      <point x="150" y="699" type="line"/>
      <point x="5" y="0" type="line"/>
    </contour>
  </outline>
</glyph>
<glyph name="lslash" format="2">
  <advance width="297"/>
  <unicode hex="0142"/>
  <outline>
    <contour>
      <point x="286" y="354" type="line"/>
      <point x="300" y="429" type="line"/>
      <point x="42" y="309" type="line"/>
      <point x="28" y="234" type="line"/>
    </contour>
    <contour>
      <point x="137" y="0" type="line"/>
      <point x="282" y="699" type="line"/>
      <point x="207" y="699" type="line"/>
      <point x="62" y="0" type="line"/>
    </contour>
  </outline>
</glyph>
<glyph name="eng" format="2">
  <advance width="545"/>
  <unicode hex="014B"/>
  <anchor x="227" y="0" name="bottom"/>
  <outline>
    <component base="n"/>
    <contour>
      <point x="284" y="-178" type="curve" smooth="yes"/>
      <point x="355" y="-178"/>
      <point x="415" y="-126"/>
      <point x="431" y="-49" type="curve" smooth="yes"/>
      <point x="474" y="155" type="line"/>
      <point x="403" y="174" type="line"/>
      <point x="358" y="-43" type="line" smooth="yes"/>
      <point x="350" y="-81"/>
      <point x="318" y="-111"/>
      <point x="282" y="-111" type="curve" smooth="yes"/>
      <point x="264" y="-111"/>
      <point x="238" y="-107"/>
      <point x="223" y="-101" type="curve"/>
      <point x="203" y="-161" type="line"/>
      <point x="222" y="-170"/>
      <point x="253" y="-178"/>
    </contour>
  </outline>
</glyph>
<glyph name="oe" format="2">
  <advance width="1001"/>
  <unicode hex="0153"/>
  <anchor x="699" y="-12" name="bottom"/>
  <anchor x="353" y="517" name="top"/>
  <outline>
    <contour>
      <point x="245" y="-12" type="curve" smooth="yes"/>
      <point x="424" y="-12"/>
      <point x="575" y="135"/>
      <point x="575" y="309" type="curve" smooth="yes"/>
      <point x="575" y="428"/>
      <point x="475" y="529"/>
      <point x="357" y="529" type="curve" smooth="yes"/>
      <point x="180" y="529"/>
      <point x="31" y="382"/>
      <point x="31" y="208" type="curve" smooth="yes"/>
      <point x="31" y="89"/>
      <point x="129" y="-12"/>
    </contour>
    <contour>
      <point x="259" y="55" type="curve" smooth="yes"/>
      <point x="178" y="55"/>
      <point x="109" y="127"/>
      <point x="109" y="213" type="curve" smooth="yes"/>
      <point x="109" y="348"/>
      <point x="216" y="462"/>
      <point x="343" y="462" type="curve" smooth="yes"/>
      <point x="427" y="462"/>
      <point x="497" y="389"/>
      <point x="497" y="303" type="curve" smooth="yes"/>
      <point x="497" y="168"/>
      <point x="388" y="55"/>
    </contour>
    <contour>
      <point x="699" y="-12" type="curve" smooth="yes"/>
      <point x="769" y="-12"/>
      <point x="872" y="17"/>
      <point x="927" y="66" type="curve"/>
      <point x="887" y="119" type="line"/>
      <point x="849" y="84"/>
      <point x="776" y="55"/>
      <point x="712" y="55" type="curve" smooth="yes"/>
      <point x="620" y="55"/>
      <point x="564" y="116"/>
      <point x="564" y="210" type="curve" smooth="yes"/>
      <point x="564" y="334"/>
      <point x="662" y="462"/>
      <point x="801" y="462" type="curve" smooth="yes"/>
      <point x="868" y="462"/>
      <point x="918" y="432"/>
      <point x="918" y="382" type="curve" smooth="yes"/>
      <point x="918" y="328"/>
      <point x="861" y="297"/>
      <point x="761" y="297" type="curve"/>
      <point x="554" y="297" type="line"/>
      <point x="540" y="230" type="line"/>
      <point x="747" y="230" type="line"/>
      <point x="901" y="230"/>
      <point x="992" y="295"/>
      <point x="992" y="386" type="curve" smooth="yes"/>
      <point x="992" y="475"/>
      <point x="904" y="529"/>
      <point x="807" y="529" type="curve" smooth="yes"/>
      <point x="644" y="529"/>
      <point x="490" y="376"/>
      <point x="490" y="204" type="curve" smooth="yes"/>
      <point x="490" y="75"/>
      <point x="577" y="-12"/>
    </contour>
  </outline>
</glyph>
<glyph name="tcaron" format="2">
  <advance width="502"/>
  <unicode hex="0165"/>
  <anchor x="189" y="0" name="bottom"/>
  <outline>
    <contour>
      <point x="186" y="-12" type="curve" smooth="yes"/>
      <point x="219" y="-12"/>
      <point x="254" y="-2"/>
      <point x="286" y="19" type="curve"/>
      <point x="256" y="78" type="line"/>
      <point x="244" y="66"/>
      <point x="220" y="55"/>
      <point x="194" y="55" type="curve" smooth="yes"/>
      <point x="171" y="55"/>
      <point x="155" y="72"/>
      <point x="155" y="100" type="curve" smooth="yes"/>
      <point x="155" y="110"/>
      <point x="150" y="82"/>
      <point x="270" y="659" type="curve"/>
      <point x="195" y="659" type="line"/>
      <point x="86" y="138"/>
      <point x="80" y="121"/>
      <point x="80" y="92" type="curve" smooth="yes"/>
      <point x="80" y="31"/>
      <point x="121" y="-12"/>
    </contour>
    <contour>
      <point x="353" y="450" type="line"/>
      <point x="367" y="517" type="line"/>
      <point x="84" y="517" type="line"/>
      <point x="70" y="450" type="line"/>
    </contour>
    <contour>
      <point x="485" y="504" type="line"/>
      <point x="539" y="559"/>
      <point x="575" y="595"/>
      <point x="575" y="647" type="curve" smooth="yes"/>
      <point x="575" y="678"/>
      <point x="560" y="699"/>
      <point x="531" y="699" type="curve" smooth="yes"/>
      <point x="504" y="699"/>
      <point x="481" y="674"/>
      <point x="481" y="649" type="curve" smooth="yes"/>
      <point x="481" y="626"/>
      <point x="497" y="608"/>
      <point x="519" y="611" type="curve"/>
      <point x="505" y="584"/>
      <point x="483" y="557"/>
      <point x="455" y="531" type="curve"/>
    </contour>
  </outline>
</glyph>
<glyph name="Schwa" format="2">
  <advance width="766"/>
  <unicode hex="018F"/>
  <anchor x="461" y="703" name="bottom"/>
  <anchor x="313" y="0" name="top"/>
  <outline>
    <contour>
      <point x="462" y="703" type="curve" smooth="yes"/>
      <point x="362" y="703"/>
      <point x="228" y="662"/>
      <point x="157" y="599" type="curve"/>
      <point x="199" y="542" type="line"/>
      <point x="258" y="595"/>
      <point x="358" y="632"/>
      <point x="449" y="632" type="curve" smooth="yes"/>
      <point x="577" y="632"/>
      <point x="660" y="539"/>
      <point x="660" y="408" type="curve" smooth="yes"/>
      <point x="660" y="234"/>
      <point x="513" y="55"/>
      <point x="325" y="55" type="curve" smooth="yes"/>
      <point x="222" y="55"/>
      <point x="147" y="104"/>
      <point x="147" y="177" type="curve" smooth="yes"/>
      <point x="147" y="257"/>
      <point x="233" y="303"/>
      <point x="381" y="303" type="curve" smooth="yes"/>
      <point x="672" y="303" type="line"/>
      <point x="686" y="374" type="line"/>
      <point x="395" y="374" type="line" smooth="yes"/>
      <point x="191" y="374"/>
      <point x="71" y="295"/>
      <point x="71" y="174" type="curve" smooth="yes"/>
      <point x="71" y="59"/>
      <point x="182" y="-16"/>
      <point x="317" y="-16" type="curve" smooth="yes"/>
      <point x="534" y="-16"/>
      <point x="737" y="190"/>
      <point x="737" y="416" type="curve" smooth="yes"/>
      <point x="737" y="583"/>
      <point x="623" y="703"/>
    </contour>
  </outline>
</glyph>
<glyph name="Ohorn" format="2">
  <advance width="808"/>
  <unicode hex="01A0"/>
  <outline>
    <contour>
      <point x="364" y="60" type="curve" smooth="yes"/>
      <point x="242" y="60"/>
      <point x="143" y="161"/>
      <point x="143" y="283" type="curve" smooth="yes"/>
      <point x="143" y="470"/>
      <point x="293" y="627"/>
      <point x="482" y="627" type="curve" smooth="yes"/>
      <point x="609" y="627"/>
      <point x="702" y="534"/>
      <point x="702" y="407" type="curve" smooth="yes"/>
      <point x="702" y="223"/>
      <point x="551" y="60"/>
    </contour>
    <contour>
      <point x="349" y="-12" type="curve" smooth="yes"/>
      <point x="581" y="-12"/>
      <point x="780" y="175"/>
      <point x="780" y="410" type="curve" smooth="yes"/>
      <point x="780" y="496"/>
      <point x="746" y="582"/>
      <point x="678" y="636" type="curve"/>
      <point x="760" y="653"/>
      <point x="820" y="728"/>
      <point x="835" y="808" type="curve"/>
      <point x="762" y="808" type="line"/>
      <point x="750" y="748"/>
      <point x="709" y="687"/>
      <point x="642" y="687" type="curve" smooth="yes"/>
      <point x="581" y="687" type="line" smooth="yes"/>
      <point x="573" y="687"/>
      <point x="566" y="692"/>
      <point x="558" y="693" type="curve" smooth="yes"/>
      <point x="538" y="697"/>
      <point x="517" y="699"/>
      <point x="496" y="699" type="curve" smooth="yes"/>
      <point x="263" y="699"/>
      <point x="64" y="513"/>
      <point x="64" y="277" type="curve" smooth="yes"/>
      <point x="64" y="119"/>
      <point x="190" y="-12"/>
    </contour>
  </outline>
</glyph>
<glyph name="ohorn" format="2">
  <advance width="632"/>
  <unicode hex="01A1"/>
  <outline>
    <contour>
      <point x="272" y="55" type="curve" smooth="yes"/>
      <point x="186" y="55"/>
      <point x="122" y="130"/>
      <point x="122" y="213" type="curve" smooth="yes"/>
      <point x="122" y="343"/>
      <point x="222" y="462"/>
      <point x="356" y="462" type="curve" smooth="yes"/>
      <point x="443" y="462"/>
      <point x="510" y="389"/>
      <point x="510" y="303" type="curve" smooth="yes"/>
      <point x="510" y="171"/>
      <point x="407" y="55"/>
    </contour>
    <contour>
      <point x="258" y="-12" type="curve" smooth="yes"/>
      <point x="436" y="-12"/>
      <point x="588" y="128"/>
      <point x="588" y="309" type="curve" smooth="yes"/>
      <point x="588" y="372"/>
      <point x="563" y="426"/>
      <point x="518" y="469" type="curve"/>
      <point x="595" y="484"/>
      <point x="652" y="564"/>
      <point x="666" y="638" type="curve"/>
      <point x="593" y="638" type="line"/>
      <point x="581" y="578"/>
      <point x="540" y="517"/>
      <point x="473" y="517" type="curve" smooth="yes"/>
      <point x="440" y="517" type="line" smooth="yes"/>
      <point x="417" y="517"/>
      <point x="394" y="529"/>
      <point x="370" y="529" type="curve" smooth="yes"/>
      <point x="192" y="529"/>
      <point x="44" y="387"/>
      <point x="44" y="208" type="curve" smooth="yes"/>
      <point x="44" y="90"/>
      <point x="138" y="-12"/>
    </contour>
  </outline>
</glyph>
<glyph name="Uhorn" format="2">
  <advance width="756"/>
  <unicode hex="01AF"/>
  <outline>
    <contour>
      <point x="318" y="-12" type="curve" smooth="yes"/>
      <point x="493" y="-12"/>
      <point x="630" y="114"/>
      <point x="665" y="282" type="curve" smooth="yes"/>
      <point x="738" y="636" type="line"/>
      <point x="822" y="653"/>
      <point x="884" y="725"/>
      <point x="899" y="808" type="curve"/>
      <point x="826" y="808" type="line"/>
      <point x="814" y="748"/>
      <point x="773" y="687"/>
      <point x="706" y="687" type="curve" smooth="yes"/>
      <point x="671" y="687" type="line"/>
      <point x="588" y="288" type="line"/>
      <point x="561" y="162"/>
      <point x="468" y="59"/>
      <point x="332" y="59" type="curve" smooth="yes"/>
      <point x="231" y="59"/>
      <point x="163" y="123"/>
      <point x="163" y="225" type="curve" smooth="yes"/>
      <point x="163" y="244"/>
      <point x="165" y="263"/>
      <point x="169" y="282" type="curve" smooth="yes"/>
      <point x="253" y="687" type="line"/>
      <point x="175" y="687" type="line"/>
      <point x="92" y="288" type="line" smooth="yes"/>
      <point x="87" y="263"/>
      <point x="84" y="238"/>
      <point x="84" y="213" type="curve" smooth="yes"/>
      <point x="84" y="72"/>
      <point x="180" y="-12"/>
    </contour>
  </outline>
</glyph>
<glyph name="uhorn" format="2">
  <advance width="602"/>
  <unicode hex="01B0"/>
  <outline>
    <contour>
      <point x="58" y="143" type="curve" smooth="yes"/>
      <point x="58" y="46"/>
      <point x="125" y="-12"/>
      <point x="220" y="-12" type="curve" smooth="yes"/>
      <point x="290" y="-12"/>
      <point x="360" y="23"/>
      <point x="402" y="79" type="curve"/>
      <point x="386" y="0" type="line"/>
      <point x="461" y="0" type="line"/>
      <point x="558" y="465" type="line"/>
      <point x="643" y="480"/>
      <point x="706" y="555"/>
      <point x="722" y="638" type="curve"/>
      <point x="649" y="638" type="line"/>
      <point x="637" y="578"/>
      <point x="596" y="517"/>
      <point x="529" y="517" type="curve" smooth="yes"/>
      <point x="494" y="517" type="line"/>
      <point x="425" y="186" type="line"/>
      <point x="408" y="107"/>
      <point x="309" y="55"/>
      <point x="233" y="55" type="curve" smooth="yes"/>
      <point x="170" y="55"/>
      <point x="135" y="94"/>
      <point x="135" y="156" type="curve" smooth="yes"/>
      <point x="135" y="202"/>
      <point x="149" y="249"/>
      <point x="159" y="294" type="curve"/>
      <point x="206" y="517" type="line"/>
      <point x="131" y="517" type="line"/>
      <point x="83" y="291" type="line"/>
      <point x="74" y="242"/>
      <point x="58" y="193"/>
    </contour>
  </outline>
</glyph>
<glyph name="schwa" format="2">
  <advance width="543"/>
  <unicode hex="0259"/>
  <anchor x="304" y="529" name="bottom"/>
  <anchor x="194" y="0" name="top"/>
  <outline>
    <contour>
      <point x="304" y="529" type="curve" smooth="yes"/>
      <point x="234" y="529"/>
      <point x="131" y="500"/>
      <point x="76" y="451" type="curve"/>
      <point x="116" y="398" type="line"/>
      <point x="154" y="433"/>
      <point x="227" y="462"/>
      <point x="291" y="462" type="curve" smooth="yes"/>
      <point x="383" y="462"/>
      <point x="439" y="401"/>
      <point x="439" y="307" type="curve" smooth="yes"/>
      <point x="439" y="183"/>
      <point x="341" y="55"/>
      <point x="202" y="55" type="curve" smooth="yes"/>
      <point x="135" y="55"/>
      <point x="85" y="85"/>
      <point x="85" y="135" type="curve" smooth="yes"/>
      <point x="85" y="189"/>
      <point x="142" y="220"/>
      <point x="242" y="220" type="curve" smooth="yes"/>
      <point x="449" y="220" type="line"/>
      <point x="463" y="287" type="line"/>
      <point x="256" y="287" type="line" smooth="yes"/>
      <point x="102" y="287"/>
      <point x="11" y="222"/>
      <point x="11" y="131" type="curve" smooth="yes"/>
      <point x="11" y="42"/>
      <point x="99" y="-12"/>
      <point x="196" y="-12" type="curve" smooth="yes"/>
      <point x="359" y="-12"/>
      <point x="513" y="141"/>
      <point x="513" y="313" type="curve" smooth="yes"/>
      <point x="513" y="442"/>
      <point x="426" y="529"/>
    </contour>
  </outline>
</glyph>
<glyph name="ring" format="2">
  <advance width="282"/>
  <unicode hex="02DA"/>
  <anchor x="195" y="517" name="_top"/>
  <anchor x="234" y="704" name="top"/>
  <outline>
    <contour>
      <point x="210" y="589" type="curve" smooth="yes"/>
      <point x="274" y="589"/>
      <point x="336" y="647"/>
      <point x="336" y="714" type="curve" smooth="yes"/>
      <point x="336" y="760"/>
      <point x="303" y="795"/>
      <point x="253" y="795" type="curve" smooth="yes"/>
      <point x="189" y="795"/>
      <point x="126" y="738"/>
      <point x="126" y="672" type="curve" smooth="yes"/>
      <point x="126" y="625"/>
      <point x="160" y="589"/>
    </contour>
    <contour>
      <point x="219" y="633" type="curve" smooth="yes"/>
      <point x="191" y="633"/>
      <point x="171" y="654"/>
      <point x="171" y="681" type="curve" smooth="yes"/>
      <point x="171" y="718"/>
      <point x="208" y="751"/>
      <point x="244" y="751" type="curve" smooth="yes"/>
      <point x="272" y="751"/>
      <point x="291" y="731"/>
      <point x="291" y="704" type="curve" smooth="yes"/>
      <point x="291" y="667"/>
      <point x="255" y="633"/>
    </contour>
  </outline>
</glyph>
<glyph name="tilde" format="2">
  <advance width="396"/>
  <unicode hex="02DC"/>
  <anchor x="252" y="517" name="_top"/>
  <anchor x="291" y="704" name="top"/>
  <outline>
    <contour>
      <point x="354" y="575" type="curve" smooth="yes"/>
      <point x="406" y="575"/>
      <point x="443" y="615"/>
      <point x="469" y="691" type="curve"/>
      <point x="424" y="704" type="line"/>
      <point x="406" y="656"/>
      <point x="383" y="633"/>
      <point x="355" y="633" type="curve" smooth="yes"/>
      <point x="316" y="633"/>
      <point x="261" y="699"/>
      <point x="199" y="699" type="curve" smooth="yes"/>
      <point x="147" y="699"/>
      <point x="110" y="659"/>
      <point x="84" y="583" type="curve"/>
      <point x="129" y="570" type="line"/>
      <point x="146" y="618"/>
      <point x="170" y="641"/>
      <point x="198" y="641" type="curve" smooth="yes"/>
      <point x="237" y="641"/>
      <point x="292" y="575"/>
    </contour>
  </outline>
</glyph>
<glyph name="hungarumlaut" format="2">
  <advance width="463"/>
  <unicode hex="02DD"/>
  <anchor x="209" y="517" name="_top"/>
  <anchor x="247" y="704" name="top"/>
  <outline>
    <contour>
      <point x="156" y="576" type="line"/>
      <point x="324" y="702" type="line"/>
      <point x="247" y="720" type="line"/>
      <point x="96" y="576" type="line"/>
    </contour>
    <contour>
      <point x="356" y="576" type="line"/>
      <point x="524" y="700" type="line"/>
      <point x="447" y="718" type="line"/>
      <point x="296" y="576" type="line"/>
    </contour>
  </outline>
</glyph>
<glyph name="dotaccentcomb" format="2">
  <advance width="175"/>
  <unicode hex="0307"/>
  <anchor x="142" y="517" name="_top"/>
  <outline>
    <contour>
      <point x="167" y="611" type="curve" smooth="yes"/>
      <point x="194" y="611"/>
      <point x="221" y="637"/>
      <point x="221" y="665" type="curve" smooth="yes"/>
      <point x="221" y="690"/>
      <point x="203" y="710"/>
      <point x="177" y="710" type="curve" smooth="yes"/>
      <point x="147" y="710"/>
      <point x="122" y="683"/>
      <point x="122" y="656" type="curve" smooth="yes"/>
      <point x="122" y="631"/>
      <point x="140" y="611"/>
    </contour>
  </outline>
  <guideline angle="78.2" x="172" y="661"/>
</glyph>
<glyph name="hookabovecomb" format="2">
  <advance width="573"/>
  <unicode hex="0309"/>
  <outline>
    <contour>
      <point x="327.582" y="572" type="line"/>
      <point x="371.582" y="572" type="line"/>
      <point x="376.471" y="595" type="line"/>
      <point x="418.66" y="610"/>
      <point x="467.186" y="636"/>
      <point x="477.176" y="683" type="curve" smooth="yes"/>
      <point x="488.229" y="735"/>
      <point x="443.63" y="751"/>
      <point x="399.63" y="751" type="curve" smooth="yes"/>
      <point x="368.63" y="751"/>
      <point x="335.93" y="743"/>
      <point x="305.379" y="731" type="curve"/>
      <point x="299.814" y="686" type="line"/>
      <point x="325.152" y="697"/>
      <point x="355.49" y="708"/>
      <point x="381.49" y="708" type="curve" smooth="yes"/>
      <point x="403.49" y="708"/>
      <point x="426.427" y="703"/>
      <point x="420.688" y="676" type="curve" smooth="yes"/>
      <point x="413.886" y="644"/>
      <point x="362.635" y="624"/>
      <point x="336.722" y="615" type="curve"/>
    </contour>
  </outline>
</glyph>
<glyph name="dblgravecomb" format="2">
  <advance width="527"/>
  <unicode hex="030F"/>
  <outline>
    <contour>
      <point x="358" y="702" type="line"/>
      <point x="473" y="575" type="line"/>
      <point x="531" y="575" type="line"/>
      <point x="441" y="720" type="line"/>
    </contour>
    <contour>
      <point x="158" y="700" type="line"/>
      <point x="273" y="575" type="line"/>
      <point x="331" y="575" type="line"/>
      <point x="241" y="718" type="line"/>
    </contour>
  </outline>
</glyph>
<glyph name="breveinvertedcomb" format="2">
  <advance width="356"/>
  <unicode hex="0311"/>
  <anchor x="230" y="517" name="_top"/>
  <anchor x="269" y="704" name="top"/>
  <outline>
    <contour>
      <point x="296" y="698" type="curve" smooth="yes"/>
      <point x="245" y="698"/>
      <point x="189" y="680"/>
      <point x="141" y="640" type="curve"/>
      <point x="182" y="589" type="line"/>
      <point x="214" y="615"/>
      <point x="255" y="633"/>
      <point x="293" y="633" type="curve" smooth="yes"/>
      <point x="325" y="633"/>
      <point x="359" y="619"/>
      <point x="380" y="593" type="curve"/>
      <point x="433" y="636" type="line"/>
      <point x="399" y="676"/>
      <point x="351" y="698"/>
    </contour>
  </outline>
</glyph>
<glyph name="horncomb" format="2">
  <advance width="592"/>
  <unicode hex="031B"/>
  <outline>
    <contour>
      <point x="530" y="517" type="curve" smooth="yes"/>
      <point x="495" y="517" type="line"/>
      <point x="483" y="462" type="line"/>
      <point x="518" y="462" type="line" smooth="yes"/>
      <point x="624" y="462"/>
      <point x="702" y="534"/>
      <point x="724" y="638" type="curve"/>
      <point x="651" y="638" type="line"/>
      <point x="638" y="578"/>
      <point x="598" y="517"/>
    </contour>
  </outline>
</glyph>
<glyph name="dotbelowcomb" format="2">
  <advance width="627"/>
  <unicode hex="0323"/>
  <outline>
    <contour>
      <point x="255.483" y="-73" type="curve" smooth="yes"/>
      <point x="227.483" y="-73"/>
      <point x="201.02" y="-94"/>
      <point x="195.068" y="-122" type="curve" smooth="yes"/>
      <point x="189.329" y="-149"/>
      <point x="206.44" y="-172"/>
      <point x="234.44" y="-172" type="curve" smooth="yes"/>
      <point x="261.44" y="-172"/>
      <point x="288.329" y="-149"/>
      <point x="294.068" y="-122" type="curve" smooth="yes"/>
      <point x="299.807" y="-95"/>
      <point x="282.483" y="-73"/>
    </contour>
  </outline>
</glyph>
<glyph name="commaaccentcomb" format="2">
  <advance width="174"/>
  <unicode hex="0326"/>
  <anchor x="30" y="0" name="_bottom"/>
  <anchor x="135" y="517" name="_top"/>
  <outline>
    <contour>
      <point x="-38" y="-277" type="line"/>
      <point x="16" y="-222"/>
      <point x="52" y="-186"/>
      <point x="52" y="-134" type="curve" smooth="yes"/>
      <point x="52" y="-103"/>
      <point x="37" y="-82"/>
      <point x="8" y="-82" type="curve" smooth="yes"/>
      <point x="-19" y="-82"/>
      <point x="-42" y="-107"/>
      <point x="-42" y="-132" type="curve" smooth="yes"/>
      <point x="-42" y="-155"/>
      <point x="-26" y="-173"/>
      <point x="-4" y="-170" type="curve"/>
      <point x="-18" y="-197"/>
      <point x="-40" y="-224"/>
      <point x="-68" y="-250" type="curve"/>
    </contour>
  </outline>
</glyph>
<glyph name="endash" format="2">
  <advance width="562"/>
  <unicode hex="2013"/>
  <outline>
    <contour>
      <point x="509" y="236" type="line"/>
      <point x="523" y="307" type="line"/>
      <point x="58" y="307" type="line"/>
      <point x="44" y="236" type="line"/>
    </contour>
  </outline>
</glyph>
<glyph name="bullet" format="2">
  <advance width="353"/>
  <unicode hex="2022"/>
  <outline>
    <contour>
      <point x="166" y="178" type="curve" smooth="yes"/>
      <point x="236" y="178"/>
      <point x="306" y="243"/>
      <point x="306" y="317" type="curve" smooth="yes"/>
      <point x="306" y="373"/>
      <point x="264" y="417"/>
      <point x="205" y="417" type="curve" smooth="yes"/>
      <point x="132" y="417"/>
      <point x="64" y="351"/>
      <point x="64" y="278" type="curve" smooth="yes"/>
      <point x="64" y="221"/>
      <point x="106" y="178"/>
    </contour>
  </outline>
</glyph>
<glyph name="fraction" format="2">
  <advance width="170"/>
  <unicode hex="2044"/>
  <outline>
    <contour>
      <point x="-169" y="8" type="line"/>
      <point x="438" y="687" type="line"/>
      <point x="353" y="687" type="line"/>
      <point x="-254" y="8" type="line"/>
    </contour>
  </outline>
</glyph>
<glyph name="zero.superior" format="2">
  <advance width="422"/>
  <unicode hex="2070"/>
  <outline>
    <contour>
      <point x="182" y="268" type="curve" smooth="yes"/>
      <point x="312" y="268"/>
      <point x="407" y="400"/>
      <point x="407" y="535" type="curve" smooth="yes"/>
      <point x="407" y="631"/>
      <point x="351" y="694"/>
      <point x="261" y="694" type="curve" smooth="yes"/>
      <point x="132" y="694"/>
      <point x="36" y="562"/>
      <point x="36" y="428" type="curve" smooth="yes"/>
      <point x="36" y="332"/>
      <point x="92" y="268"/>
    </contour>
    <contour>
      <point x="186" y="334" type="curve" smooth="yes"/>
      <point x="138" y="334"/>
      <point x="110" y="373"/>
      <point x="110" y="431" type="curve" smooth="yes"/>
      <point x="110" y="521"/>
      <point x="172" y="628"/>
      <point x="257" y="628" type="curve" smooth="yes"/>
      <point x="305" y="628"/>
      <point x="333" y="590"/>
      <point x="333" y="532" type="curve" smooth="yes"/>
      <point x="333" y="442"/>
      <point x="272" y="334"/>
    </contour>
  </outline>
</glyph>
<glyph name="four.superior" format="2">
  <advance width="393"/>
  <unicode hex="2074"/>
  <outline>
    <contour>
      <point x="276" y="275" type="line"/>
      <point x="296" y="365" type="line"/>
      <point x="353" y="365" type="line"/>
      <point x="366" y="428" type="line"/>
      <point x="308" y="428" type="line"/>
      <point x="362" y="687" type="line"/>
      <point x="274" y="687" type="line"/>
      <point x="23" y="422" type="line"/>
      <point x="20" y="365" type="line"/>
      <point x="222" y="365" type="line"/>
      <point x="204" y="275" type="line"/>
    </contour>
    <contour>
      <point x="274" y="607" type="line"/>
      <point x="235" y="428" type="line"/>
      <point x="104" y="428" type="line"/>
    </contour>
  </outline>
</glyph>
<glyph name="five.superior" format="2">
  <advance width="368"/>
  <unicode hex="2075"/>
  <outline>
    <contour>
      <point x="151" y="268" type="curve" smooth="yes"/>
      <point x="253" y="268"/>
      <point x="336" y="337"/>
      <point x="336" y="433" type="curve" smooth="yes"/>
      <point x="336" y="500"/>
      <point x="286" y="538"/>
      <point x="219" y="538" type="curve" smooth="yes"/>
      <point x="186" y="538"/>
      <point x="157" y="528"/>
      <point x="133" y="513" type="curve"/>
      <point x="161" y="621" type="line"/>
      <point x="355" y="621" type="line"/>
      <point x="368" y="687" type="line"/>
      <point x="107" y="687" type="line"/>
      <point x="55" y="468" type="line"/>
      <point x="103" y="445" type="line"/>
      <point x="130" y="464"/>
      <point x="161" y="476"/>
      <point x="196" y="476" type="curve" smooth="yes"/>
      <point x="237" y="476"/>
      <point x="262" y="457"/>
      <point x="262" y="425" type="curve" smooth="yes"/>
      <point x="262" y="375"/>
      <point x="213" y="331"/>
      <point x="156" y="331" type="curve" smooth="yes"/>
      <point x="117" y="331"/>
      <point x="83" y="350"/>
      <point x="59" y="382" type="curve"/>
      <point x="7" y="333" type="line"/>
      <point x="37" y="295"/>
      <point x="82" y="268"/>
    </contour>
  </outline>
</glyph>
<glyph name="six.superior" format="2">
  <advance width="382"/>
  <unicode hex="2076"/>
  <outline>
    <contour>
      <point x="171" y="268" type="curve" smooth="yes"/>
      <point x="267" y="268"/>
      <point x="350" y="340"/>
      <point x="350" y="433" type="curve" smooth="yes"/>
      <point x="350" y="499"/>
      <point x="301" y="538"/>
      <point x="232" y="538" type="curve" smooth="yes"/>
      <point x="184" y="538"/>
      <point x="133" y="515"/>
      <point x="102" y="475" type="curve"/>
      <point x="97" y="389" type="line"/>
      <point x="109" y="439"/>
      <point x="157" y="478"/>
      <point x="210" y="478" type="curve" smooth="yes"/>
      <point x="249" y="478"/>
      <point x="276" y="459"/>
      <point x="276" y="425" type="curve" smooth="yes"/>
      <point x="276" y="377"/>
      <point x="227" y="330"/>
      <point x="171" y="330" type="curve" smooth="yes"/>
      <point x="126" y="330"/>
      <point x="106" y="360"/>
      <point x="106" y="407" type="curve" smooth="yes"/>
      <point x="106" y="507"/>
      <point x="169" y="630"/>
      <point x="259" y="630" type="curve" smooth="yes"/>
      <point x="293" y="630"/>
      <point x="315" y="617"/>
      <point x="336" y="594" type="curve"/>
      <point x="379" y="647" type="line"/>
      <point x="352" y="674"/>
      <point x="316" y="694"/>
      <point x="263" y="694" type="curve" smooth="yes"/>
      <point x="131" y="694"/>
      <point x="34" y="553"/>
      <point x="34" y="410" type="curve" smooth="yes"/>
      <point x="34" y="326"/>
      <point x="76" y="268"/>
    </contour>
  </outline>
</glyph>
<glyph name="seven.superior" format="2">
  <advance width="350"/>
  <unicode hex="2077"/>
  <outline>
    <contour>
      <point x="121" y="275" type="line"/>
      <point x="366" y="633" type="line"/>
      <point x="377" y="687" type="line"/>
      <point x="80" y="687" type="line"/>
      <point x="67" y="621" type="line"/>
      <point x="277" y="621" type="line"/>
      <point x="37" y="275" type="line"/>
    </contour>
  </outline>
</glyph>
<glyph name="eight.superior" format="2">
  <advance width="380"/>
  <unicode hex="2078"/>
  <outline>
    <contour>
      <point x="161" y="268" type="curve" smooth="yes"/>
      <point x="252" y="268"/>
      <point x="342" y="316"/>
      <point x="342" y="400" type="curve" smooth="yes"/>
      <point x="342" y="441"/>
      <point x="315" y="471"/>
      <point x="277" y="486" type="curve"/>
      <point x="332" y="507"/>
      <point x="373" y="543"/>
      <point x="373" y="598" type="curve" smooth="yes"/>
      <point x="373" y="658"/>
      <point x="314" y="694"/>
      <point x="240" y="694" type="curve" smooth="yes"/>
      <point x="159" y="694"/>
      <point x="72" y="649"/>
      <point x="72" y="568" type="curve" smooth="yes"/>
      <point x="72" y="530"/>
      <point x="96" y="504"/>
      <point x="128" y="490" type="curve"/>
      <point x="67" y="470"/>
      <point x="19" y="428"/>
      <point x="19" y="367" type="curve" smooth="yes"/>
      <point x="19" y="306"/>
      <point x="79" y="268"/>
    </contour>
    <contour>
      <point x="164" y="330" type="curve" smooth="yes"/>
      <point x="122" y="330"/>
      <point x="94" y="348"/>
      <point x="94" y="376" type="curve" smooth="yes"/>
      <point x="94" y="420"/>
      <point x="153" y="454"/>
      <point x="200" y="456" type="curve"/>
      <point x="233" y="455"/>
      <point x="270" y="437"/>
      <point x="270" y="407" type="curve" smooth="yes"/>
      <point x="270" y="363"/>
      <point x="217" y="330"/>
    </contour>
    <contour>
      <point x="203" y="515" type="curve"/>
      <point x="173" y="516"/>
      <point x="141" y="531"/>
      <point x="141" y="559" type="curve" smooth="yes"/>
      <point x="141" y="599"/>
      <point x="189" y="632"/>
      <point x="237" y="632" type="curve" smooth="yes"/>
      <point x="274" y="632"/>
      <point x="299" y="615"/>
      <point x="299" y="589" type="curve" smooth="yes"/>
      <point x="299" y="548"/>
      <point x="247" y="517"/>
    </contour>
  </outline>
</glyph>
<glyph name="nine.superior" format="2">
  <advance width="382"/>
  <unicode hex="2079"/>
  <outline>
    <contour>
      <point x="232" y="694" type="curve" smooth="yes"/>
      <point x="136" y="694"/>
      <point x="53" y="622"/>
      <point x="53" y="529" type="curve" smooth="yes"/>
      <point x="53" y="463"/>
      <point x="102" y="424"/>
      <point x="172" y="424" type="curve" smooth="yes"/>
      <point x="219" y="424"/>
      <point x="270" y="447"/>
      <point x="301" y="487" type="curve"/>
      <point x="306" y="573" type="line"/>
      <point x="294" y="523"/>
      <point x="246" y="484"/>
      <point x="193" y="484" type="curve" smooth="yes"/>
      <point x="155" y="484"/>
      <point x="127" y="503"/>
      <point x="127" y="537" type="curve" smooth="yes"/>
      <point x="127" y="586"/>
      <point x="176" y="632"/>
      <point x="232" y="632" type="curve" smooth="yes"/>
      <point x="278" y="632"/>
      <point x="297" y="602"/>
      <point x="297" y="555" type="curve" smooth="yes"/>
      <point x="297" y="455"/>
      <point x="234" y="332"/>
      <point x="144" y="332" type="curve" smooth="yes"/>
      <point x="110" y="332"/>
      <point x="88" y="345"/>
      <point x="67" y="368" type="curve"/>
      <point x="24" y="315" type="line"/>
      <point x="51" y="288"/>
      <point x="87" y="268"/>
      <point x="141" y="268" type="curve" smooth="yes"/>
      <point x="272" y="268"/>
      <point x="369" y="409"/>
      <point x="369" y="552" type="curve" smooth="yes"/>
      <point x="369" y="637"/>
      <point x="328" y="694"/>
    </contour>
  </outline>
</glyph>
<glyph name="zero.inferior" format="2">
  <advance width="422"/>
  <unicode hex="2080"/>
  <outline>
    <contour>
      <point x="182" y="-7" type="curve" smooth="yes"/>
      <point x="312" y="-7"/>
      <point x="407" y="125"/>
      <point x="407" y="260" type="curve" smooth="yes"/>
      <point x="407" y="356"/>
      <point x="351" y="419"/>
      <point x="261" y="419" type="curve" smooth="yes"/>
      <point x="132" y="419"/>
      <point x="36" y="287"/>
      <point x="36" y="153" type="curve" smooth="yes"/>
      <point x="36" y="57"/>
      <point x="92" y="-7"/>
    </contour>
    <contour>
      <point x="186" y="59" type="curve" smooth="yes"/>
      <point x="138" y="59"/>
      <point x="110" y="98"/>
      <point x="110" y="156" type="curve" smooth="yes"/>
      <point x="110" y="246"/>
      <point x="172" y="353"/>
      <point x="257" y="353" type="curve" smooth="yes"/>
      <point x="305" y="353"/>
      <point x="333" y="315"/>
      <point x="333" y="257" type="curve" smooth="yes"/>
      <point x="333" y="167"/>
      <point x="272" y="59"/>
    </contour>
  </outline>
</glyph>
<glyph name="one.inferior" format="2">
  <advance width="244"/>
  <unicode hex="2081"/>
  <outline>
    <contour>
      <point x="163" y="0" type="line"/>
      <point x="249" y="412" type="line"/>
      <point x="191" y="412" type="line"/>
      <point x="60" y="334" type="line"/>
      <point x="80" y="282" type="line"/>
      <point x="159" y="327" type="line"/>
      <point x="90" y="0" type="line"/>
    </contour>
  </outline>
</glyph>
<glyph name="two.inferior" format="2">
  <advance width="366"/>
  <unicode hex="2082"/>
  <outline>
    <contour>
      <point x="301" y="0" type="line"/>
      <point x="315" y="67" type="line"/>
      <point x="127" y="67" type="line"/>
      <point x="232" y="137" type="line" smooth="yes"/>
      <point x="303" y="186"/>
      <point x="359" y="238"/>
      <point x="359" y="314" type="curve" smooth="yes"/>
      <point x="359" y="378"/>
      <point x="309" y="419"/>
      <point x="235" y="419" type="curve" smooth="yes"/>
      <point x="172" y="419"/>
      <point x="117" y="393"/>
      <point x="68" y="342" type="curve"/>
      <point x="110" y="293" type="line"/>
      <point x="146" y="329"/>
      <point x="184" y="353"/>
      <point x="229" y="353" type="curve" smooth="yes"/>
      <point x="261" y="353"/>
      <point x="285" y="337"/>
      <point x="285" y="307" type="curve" smooth="yes"/>
      <point x="285" y="262"/>
      <point x="237" y="219"/>
      <point x="187" y="183" type="curve" smooth="yes"/>
      <point x="11" y="60" type="line"/>
      <point x="0" y="0" type="line"/>
    </contour>
  </outline>
</glyph>
<glyph name="three.inferior" format="2">
  <advance width="367"/>
  <unicode hex="2083"/>
  <outline>
    <contour>
      <point x="154" y="-7" type="curve" smooth="yes"/>
      <point x="246" y="-7"/>
      <point x="329" y="47"/>
      <point x="329" y="130" type="curve" smooth="yes"/>
      <point x="329" y="176"/>
      <point x="295" y="202"/>
      <point x="260" y="210" type="curve"/>
      <point x="318" y="226"/>
      <point x="360" y="266"/>
      <point x="360" y="323" type="curve" smooth="yes"/>
      <point x="360" y="380"/>
      <point x="311" y="419"/>
      <point x="231" y="419" type="curve" smooth="yes"/>
      <point x="164" y="419"/>
      <point x="111" y="390"/>
      <point x="70" y="349" type="curve"/>
      <point x="107" y="300" type="line"/>
      <point x="141" y="332"/>
      <point x="178" y="354"/>
      <point x="222" y="354" type="curve" smooth="yes"/>
      <point x="261" y="354"/>
      <point x="286" y="337"/>
      <point x="285" y="309" type="curve" smooth="yes"/>
      <point x="283" y="267"/>
      <point x="239" y="239"/>
      <point x="187" y="239" type="curve"/>
      <point x="143" y="239" type="line"/>
      <point x="129" y="176" type="line"/>
      <point x="178" y="176" type="line"/>
      <point x="230" y="177"/>
      <point x="257" y="163"/>
      <point x="257" y="136" type="curve" smooth="yes"/>
      <point x="257" y="91"/>
      <point x="209" y="58"/>
      <point x="155" y="58" type="curve" smooth="yes"/>
      <point x="113" y="58"/>
      <point x="78" y="76"/>
      <point x="57" y="109" type="curve"/>
      <point x="6" y="65" type="line"/>
      <point x="31" y="24"/>
      <point x="80" y="-7"/>
    </contour>
  </outline>
</glyph>
<glyph name="four.inferior" format="2">
  <advance width="393"/>
  <unicode hex="2084"/>
  <outline>
    <contour>
      <point x="276" y="0" type="line"/>
      <point x="296" y="90" type="line"/>
      <point x="353" y="90" type="line"/>
      <point x="366" y="153" type="line"/>
      <point x="308" y="153" type="line"/>
      <point x="362" y="412" type="line"/>
      <point x="274" y="412" type="line"/>
      <point x="23" y="147" type="line"/>
      <point x="20" y="90" type="line"/>
      <point x="222" y="90" type="line"/>
      <point x="204" y="0" type="line"/>
    </contour>
    <contour>
      <point x="274" y="332" type="line"/>
      <point x="235" y="153" type="line"/>
      <point x="104" y="153" type="line"/>
    </contour>
  </outline>
</glyph>
<glyph name="five.inferior" format="2">
  <advance width="368"/>
  <unicode hex="2085"/>
  <outline>
    <contour>
      <point x="151" y="-7" type="curve" smooth="yes"/>
      <point x="253" y="-7"/>
      <point x="336" y="62"/>
      <point x="336" y="158" type="curve" smooth="yes"/>
      <point x="336" y="225"/>
      <point x="286" y="263"/>
      <point x="219" y="263" type="curve" smooth="yes"/>
      <point x="186" y="263"/>
      <point x="157" y="253"/>
      <point x="133" y="238" type="curve"/>
      <point x="161" y="346" type="line"/>
      <point x="355" y="346" type="line"/>
      <point x="368" y="412" type="line"/>
      <point x="107" y="412" type="line"/>
      <point x="55" y="193" type="line"/>
      <point x="103" y="170" type="line"/>
      <point x="130" y="189"/>
      <point x="161" y="201"/>
      <point x="196" y="201" type="curve" smooth="yes"/>
      <point x="237" y="201"/>
      <point x="262" y="182"/>
      <point x="262" y="150" type="curve" smooth="yes"/>
      <point x="262" y="100"/>
      <point x="213" y="56"/>
      <point x="156" y="56" type="curve" smooth="yes"/>
      <point x="117" y="56"/>
      <point x="83" y="75"/>
      <point x="59" y="107" type="curve"/>
      <point x="7" y="58" type="line"/>
      <point x="37" y="20"/>
      <point x="82" y="-7"/>
    </contour>
  </outline>
</glyph>
<glyph name="six.inferior" format="2">
  <advance width="382"/>
  <unicode hex="2086"/>
  <outline>
    <contour>
      <point x="171" y="-7" type="curve" smooth="yes"/>
      <point x="267" y="-7"/>
      <point x="350" y="65"/>
      <point x="350" y="158" type="curve" smooth="yes"/>
      <point x="350" y="224"/>
      <point x="301" y="263"/>
      <point x="232" y="263" type="curve" smooth="yes"/>
      <point x="184" y="263"/>
      <point x="133" y="240"/>
      <point x="102" y="200" type="curve"/>
      <point x="97" y="114" type="line"/>
      <point x="109" y="164"/>
      <point x="157" y="203"/>
      <point x="210" y="203" type="curve" smooth="yes"/>
      <point x="249" y="203"/>
      <point x="276" y="184"/>
      <point x="276" y="150" type="curve" smooth="yes"/>
      <point x="276" y="102"/>
      <point x="227" y="55"/>
      <point x="171" y="55" type="curve" smooth="yes"/>
      <point x="126" y="55"/>
      <point x="106" y="85"/>
      <point x="106" y="132" type="curve" smooth="yes"/>
      <point x="106" y="232"/>
      <point x="169" y="355"/>
      <point x="259" y="355" type="curve" smooth="yes"/>
      <point x="293" y="355"/>
      <point x="315" y="342"/>
      <point x="336" y="319" type="curve"/>
      <point x="379" y="372" type="line"/>
      <point x="352" y="399"/>
      <point x="316" y="419"/>
      <point x="263" y="419" type="curve" smooth="yes"/>
      <point x="131" y="419"/>
      <point x="34" y="278"/>
      <point x="34" y="135" type="curve" smooth="yes"/>
      <point x="34" y="51"/>
      <point x="76" y="-7"/>
    </contour>
  </outline>
</glyph>
<glyph name="seven.inferior" format="2">
  <advance width="350"/>
  <unicode hex="2087"/>
  <outline>
    <contour>
      <point x="121" y="0" type="line"/>
      <point x="366" y="358" type="line"/>
      <point x="377" y="412" type="line"/>
      <point x="80" y="412" type="line"/>
      <point x="67" y="346" type="line"/>
      <point x="277" y="346" type="line"/>
      <point x="37" y="0" type="line"/>
    </contour>
  </outline>
</glyph>
<glyph name="eight.inferior" format="2">
  <advance width="380"/>
  <unicode hex="2088"/>
  <outline>
    <contour>
      <point x="161" y="-7" type="curve" smooth="yes"/>
      <point x="252" y="-7"/>
      <point x="342" y="41"/>
      <point x="342" y="125" type="curve" smooth="yes"/>
      <point x="342" y="166"/>
      <point x="315" y="196"/>
      <point x="277" y="211" type="curve"/>
      <point x="332" y="232"/>
      <point x="373" y="268"/>
      <point x="373" y="323" type="curve" smooth="yes"/>
      <point x="373" y="383"/>
      <point x="314" y="419"/>
      <point x="240" y="419" type="curve" smooth="yes"/>
      <point x="159" y="419"/>
      <point x="72" y="374"/>
      <point x="72" y="293" type="curve" smooth="yes"/>
      <point x="72" y="255"/>
      <point x="96" y="229"/>
      <point x="128" y="215" type="curve"/>
      <point x="67" y="195"/>
      <point x="19" y="153"/>
      <point x="19" y="92" type="curve" smooth="yes"/>
      <point x="19" y="31"/>
      <point x="79" y="-7"/>
    </contour>
    <contour>
      <point x="164" y="55" type="curve" smooth="yes"/>
      <point x="122" y="55"/>
      <point x="94" y="73"/>
      <point x="94" y="101" type="curve" smooth="yes"/>
      <point x="94" y="145"/>
      <point x="153" y="179"/>
      <point x="200" y="181" type="curve"/>
      <point x="233" y="180"/>
      <point x="270" y="162"/>
      <point x="270" y="132" type="curve" smooth="yes"/>
      <point x="270" y="88"/>
      <point x="217" y="55"/>
    </contour>
    <contour>
      <point x="203" y="240" type="curve"/>
      <point x="173" y="241"/>
      <point x="141" y="256"/>
      <point x="141" y="284" type="curve" smooth="yes"/>
      <point x="141" y="324"/>
      <point x="189" y="357"/>
      <point x="237" y="357" type="curve" smooth="yes"/>
      <point x="274" y="357"/>
      <point x="299" y="340"/>
      <point x="299" y="314" type="curve" smooth="yes"/>
      <point x="299" y="273"/>
      <point x="247" y="242"/>
    </contour>
  </outline>
</glyph>
<glyph name="nine.inferior" format="2">
  <advance width="382"/>
  <unicode hex="2089"/>
  <outline>
    <contour>
      <point x="232" y="419" type="curve" smooth="yes"/>
      <point x="136" y="419"/>
      <point x="53" y="347"/>
      <point x="53" y="254" type="curve" smooth="yes"/>
      <point x="53" y="188"/>
      <point x="102" y="149"/>
      <point x="172" y="149" type="curve" smooth="yes"/>
      <point x="219" y="149"/>
      <point x="270" y="172"/>
      <point x="301" y="212" type="curve"/>
      <point x="306" y="298" type="line"/>
      <point x="294" y="248"/>
      <point x="246" y="209"/>
      <point x="193" y="209" type="curve" smooth="yes"/>
      <point x="155" y="209"/>
      <point x="127" y="228"/>
      <point x="127" y="262" type="curve" smooth="yes"/>
      <point x="127" y="311"/>
      <point x="176" y="357"/>
      <point x="232" y="357" type="curve" smooth="yes"/>
      <point x="278" y="357"/>
      <point x="297" y="327"/>
      <point x="297" y="280" type="curve" smooth="yes"/>
      <point x="297" y="180"/>
      <point x="234" y="57"/>
      <point x="144" y="57" type="curve" smooth="yes"/>
      <point x="110" y="57"/>
      <point x="88" y="70"/>
      <point x="67" y="93" type="curve"/>
      <point x="24" y="40" type="line"/>
      <point x="51" y="13"/>
      <point x="87" y="-7"/>
      <point x="141" y="-7" type="curve" smooth="yes"/>
      <point x="272" y="-7"/>
      <point x="369" y="134"/>
      <point x="369" y="277" type="curve" smooth="yes"/>
      <point x="369" y="362"/>
      <point x="328" y="419"/>
    </contour>
  </outline>
</glyph>
<glyph name="dong" format="2">
  <advance width="657"/>
  <unicode hex="20AB"/>
  <outline>
    <contour>
      <point x="502" y="-75" type="line"/>
      <point x="32" y="-75" type="line"/>
      <point x="18" y="-142" type="line"/>
      <point x="488" y="-142" type="line"/>
    </contour>
    <contour>
      <point x="648" y="699" type="line"/>
      <point x="573" y="699" type="line"/>
      <point x="560" y="635" type="line"/>
      <point x="388" y="635" type="line"/>
      <point x="377" y="585" type="line"/>
      <point x="549" y="585" type="line"/>
      <point x="513" y="408" type="line"/>
      <point x="486" y="474"/>
      <point x="428" y="529"/>
      <point x="354" y="529" type="curve" smooth="yes"/>
      <point x="174" y="529"/>
      <point x="48" y="365"/>
      <point x="48" y="194" type="curve" smooth="yes"/>
      <point x="48" y="86"/>
      <point x="130" y="-12"/>
      <point x="242" y="-12" type="curve" smooth="yes"/>
      <point x="328" y="-12"/>
      <point x="396" y="30"/>
      <point x="448" y="96" type="curve"/>
      <point x="428" y="0" type="line"/>
      <point x="503" y="0" type="line"/>
      <point x="624" y="585" type="line"/>
      <point x="687" y="585" type="line"/>
      <point x="698" y="635" type="line"/>
      <point x="635" y="635" type="line"/>
    </contour>
    <contour>
      <point x="256" y="55" type="curve" smooth="yes"/>
      <point x="178" y="55"/>
      <point x="126" y="125"/>
      <point x="126" y="199" type="curve" smooth="yes"/>
      <point x="126" y="321"/>
      <point x="204" y="462"/>
      <point x="340" y="462" type="curve" smooth="yes"/>
      <point x="419" y="462"/>
      <point x="488" y="398"/>
      <point x="488" y="318" type="curve" smooth="yes"/>
      <point x="488" y="188"/>
      <point x="395" y="55"/>
    </contour>
  </outline>
</glyph>
<glyph name="Euro" format="2">
  <advance width="820"/>
  <unicode hex="20AC"/>
  <anchor x="453" y="0" name="bottom"/>
  <anchor x="593" y="687" name="top"/>
  <outline>
    <contour>
      <point x="565" y="236" type="line"/>
      <point x="578" y="303" type="line"/>
      <point x="82" y="303" type="line"/>
      <point x="69" y="236" type="line"/>
    </contour>
    <contour>
      <point x="599" y="403" type="line"/>
      <point x="613" y="470" type="line"/>
      <point x="117" y="470" type="line"/>
      <point x="103" y="403" type="line"/>
    </contour>
    <contour>
      <point x="451" y="-12" type="curve" smooth="yes"/>
      <point x="534" y="-12"/>
      <point x="645" y="31"/>
      <point x="718" y="91" type="curve"/>
      <point x="673" y="149" type="line"/>
      <point x="614" y="97"/>
      <point x="528" y="60"/>
      <point x="465" y="60" type="curve" smooth="yes"/>
      <point x="344" y="60"/>
      <point x="242" y="161"/>
      <point x="242" y="280" type="curve" smooth="yes"/>
      <point x="242" y="468"/>
      <point x="398" y="627"/>
      <point x="584" y="627" type="curve" smooth="yes"/>
      <point x="650" y="627"/>
      <point x="722" y="592"/>
      <point x="759" y="542" type="curve"/>
      <point x="820" y="592" type="line"/>
      <point x="770" y="655"/>
      <point x="679" y="699"/>
      <point x="599" y="699" type="curve" smooth="yes"/>
      <point x="363" y="699"/>
      <point x="164" y="507"/>
      <point x="164" y="280" type="curve" smooth="yes"/>
      <point x="164" y="121"/>
      <point x="295" y="-12"/>
    </contour>
  </outline>
</glyph>
<glyph name="arrowdown" format="2">
  <advance width="802"/>
  <unicode hex="2193"/>
  <outline>
    <contour>
      <point x="665" y="361" type="line"/>
      <point x="588" y="284"/>
      <point x="512" y="207"/>
      <point x="438" y="128" type="curve"/>
      <point x="439" y="158"/>
      <point x="440" y="188"/>
      <point x="440" y="218" type="curve" smooth="yes"/>
      <point x="440" y="728" type="line"/>
      <point x="362" y="728" type="line"/>
      <point x="362" y="218" type="line" smooth="yes"/>
      <point x="362" y="188"/>
      <point x="364" y="158"/>
      <point x="365" y="128" type="curve"/>
      <point x="291" y="207"/>
      <point x="214" y="284"/>
      <point x="138" y="361" type="curve"/>
      <point x="83" y="307" type="line"/>
      <point x="401" y="-12" type="line"/>
      <point x="720" y="307" type="line"/>
    </contour>
  </outline>
</glyph>
<glyph name="arrowNW" format="2">
  <advance width="725"/>
  <unicode hex="2196"/>
  <outline>
    <contour>
      <point x="176" y="65" type="line"/>
      <point x="176" y="211" type="line" smooth="yes"/>
      <point x="176" y="271"/>
      <point x="173" y="331"/>
      <point x="170" y="391" type="curve"/>
      <point x="192" y="368"/>
      <point x="214" y="345"/>
      <point x="236" y="322" type="curve"/>
      <point x="569" y="-11" type="line"/>
      <point x="625" y="44" type="line"/>
      <point x="288" y="381" type="line" smooth="yes"/>
      <point x="267" y="402"/>
      <point x="245" y="423"/>
      <point x="223" y="443" type="curve"/>
      <point x="283" y="440"/>
      <point x="342" y="438"/>
      <point x="402" y="438" type="curve" smooth="yes"/>
      <point x="548" y="438" type="line"/>
      <point x="548" y="516" type="line"/>
      <point x="98" y="516" type="line"/>
      <point x="98" y="65" type="line"/>
    </contour>
  </outline>
</glyph>
<glyph name="arrowNE" format="2">
  <advance width="725"/>
  <unicode hex="2197"/>
  <outline>
    <contour>
      <point x="628" y="516" type="line"/>
      <point x="178" y="516" type="line"/>
      <point x="178" y="438" type="line"/>
      <point x="323" y="438" type="line" smooth="yes"/>
      <point x="383" y="438"/>
      <point x="443" y="440"/>
      <point x="503" y="443" type="curve"/>
      <point x="481" y="423"/>
      <point x="459" y="402"/>
      <point x="438" y="381" type="curve" smooth="yes"/>
      <point x="101" y="44" type="line"/>
      <point x="156" y="-11" type="line"/>
      <point x="493" y="326" type="line" smooth="yes"/>
      <point x="514" y="347"/>
      <point x="535" y="369"/>
      <point x="555" y="391" type="curve"/>
      <point x="552" y="331"/>
      <point x="550" y="271"/>
      <point x="550" y="211" type="curve" smooth="yes"/>
      <point x="550" y="65" type="line"/>
      <point x="628" y="65" type="line"/>
    </contour>
  </outline>
</glyph>
<glyph name="arrowSW" format="2">
  <advance width="725"/>
  <unicode hex="2199"/>
  <outline>
    <contour>
      <point x="98" y="0" type="line"/>
      <point x="548" y="0" type="line"/>
      <point x="548" y="78" type="line"/>
      <point x="402" y="78" type="line" smooth="yes"/>
      <point x="342" y="78"/>
      <point x="283" y="76"/>
      <point x="223" y="73" type="curve"/>
      <point x="242" y="91"/>
      <point x="262" y="110"/>
      <point x="281" y="128" type="curve"/>
      <point x="625" y="472" type="line"/>
      <point x="569" y="527" type="line"/>
      <point x="232" y="190" type="line" smooth="yes"/>
      <point x="211" y="169"/>
      <point x="190" y="147"/>
      <point x="170" y="125" type="curve"/>
      <point x="173" y="185"/>
      <point x="176" y="245"/>
      <point x="176" y="305" type="curve" smooth="yes"/>
      <point x="176" y="450" type="line"/>
      <point x="98" y="450" type="line"/>
    </contour>
  </outline>
</glyph>
<glyph name="arrowleftuptip" format="2">
  <advance width="954"/>
  <unicode hex="21B0"/>
  <outline>
    <contour>
      <point x="294" y="501" type="line"/>
      <point x="793" y="501" type="line"/>
      <point x="793" y="0" type="line"/>
      <point x="870" y="0" type="line"/>
      <point x="870" y="577" type="line"/>
      <point x="294" y="577" type="line"/>
      <point x="294" y="750" type="line"/>
      <point x="83" y="539" type="line"/>
      <point x="294" y="328" type="line"/>
    </contour>
  </outline>
</glyph>
<glyph name="arrowrightdowncorner" format="2">
  <advance width="797"/>
  <unicode hex="21B4"/>
  <outline>
    <contour>
      <point x="715" y="199" type="line"/>
      <point x="543" y="199" type="line"/>
      <point x="543" y="728" type="line"/>
      <point x="84" y="728" type="line"/>
      <point x="84" y="651" type="line"/>
      <point x="465" y="651" type="line"/>
      <point x="466" y="199" type="line"/>
      <point x="293" y="199" type="line"/>
      <point x="504" y="-12" type="line"/>
    </contour>
  </outline>
</glyph>
<glyph name="arrowanticlockwiseopencircle" format="2">
  <advance width="922"/>
  <unicode hex="21BA"/>
  <outline>
    <contour>
      <point x="484" y="648" type="line"/>
      <point x="633" y="638"/>
      <point x="747" y="511"/>
      <point x="747" y="363" type="curve" smooth="yes"/>
      <point x="747" y="206"/>
      <point x="619" y="78"/>
      <point x="462" y="78" type="curve" smooth="yes"/>
      <point x="305" y="78"/>
      <point x="176" y="205"/>
      <point x="176" y="363" type="curve"/>
      <point x="98" y="363" type="line"/>
      <point x="98" y="162"/>
      <point x="261" y="0"/>
      <point x="462" y="0" type="curve" smooth="yes"/>
      <point x="663" y="0"/>
      <point x="825" y="162"/>
      <point x="825" y="363" type="curve" smooth="yes"/>
      <point x="825" y="557"/>
      <point x="677" y="713"/>
      <point x="484" y="727" type="curve"/>
      <point x="484" y="892" type="line"/>
      <point x="273" y="681" type="line"/>
      <point x="484" y="470" type="line"/>
    </contour>
  </outline>
</glyph>
<glyph name="arrowdblleft" format="2">
  <advance width="922"/>
  <unicode hex="21D0"/>
  <outline>
    <contour>
      <point x="456" y="54" type="line"/>
      <point x="315" y="194" type="line"/>
      <point x="813" y="194" type="line"/>
      <point x="813" y="272" type="line"/>
      <point x="237" y="272" type="line"/>
      <point x="191" y="318" type="line"/>
      <point x="236" y="363" type="line"/>
      <point x="813" y="363" type="line"/>
      <point x="813" y="441" type="line"/>
      <point x="315" y="441" type="line"/>
      <point x="456" y="582" type="line"/>
      <point x="401" y="637" type="line"/>
      <point x="83" y="318" type="line"/>
      <point x="401" y="0" type="line"/>
    </contour>
  </outline>
</glyph>
<glyph name="dblstrokearrowdown" format="2">
  <advance width="572"/>
  <unicode hex="21DF"/>
  <outline>
    <contour>
      <point x="497" y="188" type="line"/>
      <point x="324" y="188" type="line"/>
      <point x="324" y="325" type="line"/>
      <point x="446" y="325" type="line"/>
      <point x="446" y="396" type="line"/>
      <point x="324" y="396" type="line"/>
      <point x="324" y="482" type="line"/>
      <point x="446" y="482" type="line"/>
      <point x="446" y="554" type="line"/>
      <point x="324" y="554" type="line"/>
      <point x="324" y="734" type="line"/>
      <point x="248" y="734" type="line"/>
      <point x="248" y="554" type="line"/>
      <point x="126" y="554" type="line"/>
      <point x="126" y="482" type="line"/>
      <point x="248" y="482" type="line"/>
      <point x="248" y="396" type="line"/>
      <point x="126" y="396" type="line"/>
      <point x="126" y="325" type="line"/>
      <point x="248" y="325" type="line"/>
      <point x="248" y="188" type="line"/>
      <point x="75" y="188" type="line"/>
      <point x="286" y="-22" type="line"/>
    </contour>
  </outline>
</glyph>
<glyph name="arrowlefttobar" format="2">
  <advance width="980"/>
  <unicode hex="21E4"/>
  <outline>
    <contour>
      <point x="435" y="325" type="line"/>
      <point x="905" y="325" type="line"/>
      <point x="905" y="402" type="line"/>
      <point x="435" y="402" type="line"/>
      <point x="435" y="574" type="line"/>
      <point x="224" y="363" type="line"/>
      <point x="435" y="152" type="line"/>
    </contour>
    <contour>
      <point x="152" y="153" type="line"/>
      <point x="152" y="574" type="line"/>
      <point x="75" y="574" type="line"/>
      <point x="75" y="153" type="line"/>
    </contour>
  </outline>
</glyph>
<glyph name="arrowrighttobar" format="2">
  <advance width="980"/>
  <unicode hex="21E5"/>
  <outline>
    <contour>
      <point x="757" y="363" type="line"/>
      <point x="546" y="574" type="line"/>
      <point x="546" y="402" type="line"/>
      <point x="75" y="402" type="line"/>
      <point x="75" y="325" type="line"/>
      <point x="546" y="325" type="line"/>
      <point x="546" y="152" type="line"/>
    </contour>
    <contour>
      <point x="905" y="153" type="line"/>
      <point x="905" y="574" type="line"/>
      <point x="828" y="574" type="line"/>
      <point x="828" y="153" type="line"/>
    </contour>
  </outline>
</glyph>
<glyph name="minus" format="2">
  <advance width="614"/>
  <unicode hex="2212"/>
  <outline>
    <contour>
      <point x="544" y="297" type="line"/>
      <point x="560" y="371" type="line"/>
      <point x="101" y="371" type="line"/>
      <point x="85" y="297" type="line"/>
    </contour>
  </outline>
</glyph>
<glyph name="Euro.tf" format="2">
  <advance width="700"/>
  <anchor x="393" y="-0" name="bottom"/>
  <anchor x="533" y="687" name="top"/>
  <outline>
    <contour>
      <point x="505" y="236" type="line"/>
      <point x="518" y="303" type="line"/>
      <point x="22" y="303" type="line"/>
      <point x="9" y="236" type="line"/>
    </contour>
    <contour>
      <point x="539" y="403" type="line"/>
      <point x="553" y="470" type="line"/>
      <point x="57" y="470" type="line"/>
      <point x="43" y="403" type="line"/>
    </contour>
    <contour>
      <point x="391" y="-12" type="curve" smooth="yes"/>
      <point x="474" y="-12"/>
      <point x="585" y="31"/>
      <point x="658" y="91" type="curve"/>
      <point x="613" y="149" type="line"/>
      <point x="554" y="97"/>
      <point x="468" y="60"/>
      <point x="405" y="60" type="curve" smooth="yes"/>
      <point x="284" y="60"/>
      <point x="182" y="161"/>
      <point x="182" y="280" type="curve" smooth="yes"/>
      <point x="182" y="468"/>
      <point x="338" y="627"/>
      <point x="524" y="627" type="curve" smooth="yes"/>
      <point x="590" y="627"/>
      <point x="662" y="592"/>
      <point x="699" y="542" type="curve"/>
      <point x="760" y="592" type="line"/>
      <point x="710" y="655"/>
      <point x="619" y="699"/>
      <point x="539" y="699" type="curve" smooth="yes"/>
      <point x="303" y="699"/>
      <point x="104" y="507"/>
      <point x="104" y="280" type="curve" smooth="yes"/>
      <point x="104" y="121"/>
      <point x="235" y="-12"/>
    </contour>
  </outline>
</glyph>
<glyph name="ae_upper" format="2">
  <advance width="489"/>
  <anchor x="483" y="687" name="_ae_upper"/>
  <outline>
    <contour>
      <point x="42" y="0" type="line"/>
      <point x="581" y="687" type="line"/>
      <point x="489" y="687" type="line"/>
      <point x="-51" y="0" type="line"/>
    </contour>
    <contour>
      <point x="448" y="156" type="line"/>
      <point x="463" y="230" type="line"/>
      <point x="144" y="230" type="line"/>
      <point x="129" y="156" type="line"/>
    </contour>
  </outline>
</glyph>
<glyph name="ascender" format="2">
  <advance width="250"/>
  <anchor x="124" y="127" name="k_arms"/>
  <anchor x="88" y="260" name="loop_left"/>
  <anchor x="161" y="253" name="loop_right"/>
  <anchor x="176" y="326" name="shoulder"/>
  <outline>
    <contour>
      <point x="109" y="0" type="line"/>
      <point x="254" y="699" type="line"/>
      <point x="179" y="699" type="line"/>
      <point x="34" y="0" type="line"/>
    </contour>
  </outline>
</glyph>
<glyph name="breveacute.case" format="2">
  <advance width="755"/>
  <outline>
    <contour>
      <point x="439" y="856" type="line"/>
      <point x="497" y="856" type="line"/>
      <point x="657" y="944" type="line"/>
      <point x="581" y="957" type="line"/>
    </contour>
    <contour>
      <point x="341" y="803" type="line"/>
      <point x="379" y="773"/>
      <point x="427" y="759"/>
      <point x="482" y="759" type="curve" smooth="yes"/>
      <point x="540" y="759"/>
      <point x="590" y="775"/>
      <point x="633" y="800" type="curve"/>
      <point x="589" y="836" type="line"/>
      <point x="558" y="817"/>
      <point x="522" y="805"/>
      <point x="481" y="805" type="curve" smooth="yes"/>
      <point x="446" y="805"/>
      <point x="415" y="814"/>
      <point x="391" y="833" type="curve"/>
    </contour>
  </outline>
</glyph>
<glyph name="breveacute" format="2">
  <advance width="573"/>
  <outline>
    <contour>
      <point x="339" y="727" type="line"/>
      <point x="397" y="727" type="line"/>
      <point x="565" y="853" type="line"/>
      <point x="490" y="871" type="line"/>
    </contour>
    <contour>
      <point x="236" y="651" type="line"/>
      <point x="272" y="609"/>
      <point x="318" y="589"/>
      <point x="373" y="589" type="curve" smooth="yes"/>
      <point x="431" y="589"/>
      <point x="483" y="611"/>
      <point x="528" y="647" type="curve"/>
      <point x="487" y="698" type="line"/>
      <point x="455" y="672"/>
      <point x="417" y="654"/>
      <point x="376" y="654" type="curve" smooth="yes"/>
      <point x="341" y="654"/>
      <point x="311" y="667"/>
      <point x="289" y="694" type="curve"/>
    </contour>
  </outline>
</glyph>
<glyph name="brevegrave.case" format="2">
  <advance width="755"/>
  <outline>
    <contour>
      <point x="369" y="947" type="line"/>
      <point x="493" y="859" type="line"/>
      <point x="551" y="859" type="line"/>
      <point x="451" y="960" type="line"/>
    </contour>
    <contour>
      <point x="341" y="803" type="line"/>
      <point x="379" y="773"/>
      <point x="427" y="759"/>
      <point x="482" y="759" type="curve" smooth="yes"/>
      <point x="540" y="759"/>
      <point x="590" y="775"/>
      <point x="633" y="800" type="curve"/>
      <point x="589" y="836" type="line"/>
      <point x="558" y="817"/>
      <point x="522" y="805"/>
      <point x="481" y="805" type="curve" smooth="yes"/>
      <point x="446" y="805"/>
      <point x="415" y="814"/>
      <point x="391" y="833" type="curve"/>
    </contour>
  </outline>
</glyph>
<glyph name="brevegrave" format="2">
  <advance width="573"/>
  <outline>
    <contour>
      <point x="277" y="857" type="line"/>
      <point x="393" y="731" type="line"/>
      <point x="451" y="731" type="line"/>
      <point x="360" y="875" type="line"/>
    </contour>
    <contour>
      <point x="236" y="651" type="line"/>
      <point x="272" y="609"/>
      <point x="318" y="589"/>
      <point x="373" y="589" type="curve" smooth="yes"/>
      <point x="431" y="589"/>
      <point x="483" y="611"/>
      <point x="528" y="647" type="curve"/>
      <point x="487" y="698" type="line"/>
      <point x="455" y="672"/>
      <point x="417" y="654"/>
      <point x="376" y="654" type="curve" smooth="yes"/>
      <point x="341" y="654"/>
      <point x="311" y="667"/>
      <point x="289" y="694" type="curve"/>
    </contour>
  </outline>
</glyph>
<glyph name="brevehoi.case" format="2">
  <advance width="755"/>
  <outline>
    <contour>
      <point x="464" y="834" type="line"/>
      <point x="508" y="834" type="line"/>
      <point x="511" y="850" type="line"/>
      <point x="558" y="862"/>
      <point x="606" y="881"/>
      <point x="606" y="922" type="curve" smooth="yes"/>
      <point x="606" y="952"/>
      <point x="559" y="960"/>
      <point x="524" y="960" type="curve" smooth="yes"/>
      <point x="492" y="960"/>
      <point x="461" y="953"/>
      <point x="431" y="945" type="curve"/>
      <point x="427" y="914" type="line"/>
      <point x="451" y="921"/>
      <point x="482" y="929"/>
      <point x="509" y="929" type="curve" smooth="yes"/>
      <point x="525" y="929"/>
      <point x="550" y="927"/>
      <point x="550" y="912" type="curve" smooth="yes"/>
      <point x="550" y="885"/>
      <point x="498" y="871"/>
      <point x="469" y="864" type="curve"/>
    </contour>
    <contour>
      <point x="341" y="803" type="line"/>
      <point x="379" y="773"/>
      <point x="427" y="759"/>
      <point x="482" y="759" type="curve" smooth="yes"/>
      <point x="540" y="759"/>
      <point x="590" y="775"/>
      <point x="633" y="800" type="curve"/>
      <point x="589" y="836" type="line"/>
      <point x="558" y="817"/>
      <point x="522" y="805"/>
      <point x="481" y="805" type="curve" smooth="yes"/>
      <point x="446" y="805"/>
      <point x="415" y="814"/>
      <point x="391" y="833" type="curve"/>
    </contour>
  </outline>
</glyph>
<glyph name="brevehoi" format="2">
  <advance width="573"/>
  <outline>
    <contour>
      <point x="362" y="696" type="line"/>
      <point x="406" y="696" type="line"/>
      <point x="410" y="719" type="line"/>
      <point x="458" y="735"/>
      <point x="512" y="763"/>
      <point x="512" y="821" type="curve" smooth="yes"/>
      <point x="512" y="864"/>
      <point x="468" y="875"/>
      <point x="433" y="875" type="curve" smooth="yes"/>
      <point x="401" y="875"/>
      <point x="369" y="866"/>
      <point x="339" y="854" type="curve"/>
      <point x="332" y="810" type="line"/>
      <point x="357" y="820"/>
      <point x="388" y="831"/>
      <point x="415" y="831" type="curve" smooth="yes"/>
      <point x="431" y="831"/>
      <point x="455" y="828"/>
      <point x="455" y="807" type="curve" smooth="yes"/>
      <point x="455" y="769"/>
      <point x="399" y="748"/>
      <point x="370" y="738" type="curve"/>
    </contour>
    <contour>
      <point x="236" y="651" type="line"/>
      <point x="272" y="609"/>
      <point x="318" y="589"/>
      <point x="373" y="589" type="curve" smooth="yes"/>
      <point x="431" y="589"/>
      <point x="483" y="611"/>
      <point x="528" y="647" type="curve"/>
      <point x="487" y="698" type="line"/>
      <point x="455" y="672"/>
      <point x="417" y="654"/>
      <point x="376" y="654" type="curve" smooth="yes"/>
      <point x="341" y="654"/>
      <point x="311" y="667"/>
      <point x="289" y="694" type="curve"/>
    </contour>
  </outline>
</glyph>
<glyph name="brevetilde.case" format="2">
  <advance width="755"/>
  <outline>
    <contour>
      <point x="337" y="871" type="curve"/>
      <point x="381" y="866" type="line"/>
      <point x="389" y="886"/>
      <point x="406" y="914"/>
      <point x="441" y="914" type="curve" smooth="yes"/>
      <point x="471" y="914"/>
      <point x="512" y="868"/>
      <point x="561" y="868" type="curve" smooth="yes"/>
      <point x="628" y="868"/>
      <point x="658" y="912"/>
      <point x="674" y="951" type="curve"/>
      <point x="629" y="956" type="line"/>
      <point x="621" y="936"/>
      <point x="604" y="908"/>
      <point x="569" y="908" type="curve" smooth="yes"/>
      <point x="540" y="908"/>
      <point x="499" y="955"/>
      <point x="450" y="955" type="curve" smooth="yes"/>
      <point x="383" y="955"/>
      <point x="352" y="910"/>
    </contour>
    <contour>
      <point x="341" y="803" type="line"/>
      <point x="379" y="773"/>
      <point x="427" y="759"/>
      <point x="482" y="759" type="curve" smooth="yes"/>
      <point x="540" y="759"/>
      <point x="590" y="775"/>
      <point x="633" y="800" type="curve"/>
      <point x="589" y="836" type="line"/>
      <point x="558" y="817"/>
      <point x="522" y="805"/>
      <point x="481" y="805" type="curve" smooth="yes"/>
      <point x="446" y="805"/>
      <point x="415" y="814"/>
      <point x="391" y="833" type="curve"/>
    </contour>
  </outline>
</glyph>
<glyph name="brevetilde" format="2">
  <advance width="573"/>
  <outline>
    <contour>
      <point x="238" y="749" type="curve"/>
      <point x="282" y="742" type="line"/>
      <point x="292" y="770"/>
      <point x="311" y="810"/>
      <point x="346" y="810" type="curve" smooth="yes"/>
      <point x="376" y="810"/>
      <point x="413" y="744"/>
      <point x="462" y="744" type="curve" smooth="yes"/>
      <point x="529" y="744"/>
      <point x="563" y="807"/>
      <point x="582" y="863" type="curve"/>
      <point x="538" y="870" type="line"/>
      <point x="528" y="842"/>
      <point x="509" y="802"/>
      <point x="474" y="802" type="curve" smooth="yes"/>
      <point x="445" y="802"/>
      <point x="408" y="868"/>
      <point x="359" y="868" type="curve" smooth="yes"/>
      <point x="292" y="868"/>
      <point x="257" y="804"/>
    </contour>
    <contour>
      <point x="236" y="651" type="line"/>
      <point x="272" y="609"/>
      <point x="318" y="589"/>
      <point x="373" y="589" type="curve" smooth="yes"/>
      <point x="431" y="589"/>
      <point x="483" y="611"/>
      <point x="528" y="647" type="curve"/>
      <point x="487" y="698" type="line"/>
      <point x="455" y="672"/>
      <point x="417" y="654"/>
      <point x="376" y="654" type="curve" smooth="yes"/>
      <point x="341" y="654"/>
      <point x="311" y="667"/>
      <point x="289" y="694" type="curve"/>
    </contour>
  </outline>
</glyph>
<glyph name="cent.tf.rvrn" format="2">
  <advance width="700"/>
  <anchor x="332" y="0" name="bottom"/>
  <anchor x="433" y="517" name="top"/>
  <outline>
    <contour>
      <point x="362" y="-74" type="line"/>
      <point x="380" y="13" type="line"/>
      <point x="302" y="13" type="line"/>
      <point x="284" y="-74" type="line"/>
    </contour>
    <contour>
      <point x="482" y="504" type="line"/>
      <point x="500" y="589" type="line"/>
      <point x="422" y="589" type="line"/>
      <point x="404" y="504" type="line"/>
    </contour>
    <contour>
      <point x="335" y="-12" type="curve" smooth="yes"/>
      <point x="411" y="-12"/>
      <point x="479" y="13"/>
      <point x="541" y="65" type="curve"/>
      <point x="496" y="120" type="line"/>
      <point x="449" y="76"/>
      <point x="400" y="55"/>
      <point x="348" y="55" type="curve" smooth="yes"/>
      <point x="267" y="55"/>
      <point x="198" y="127"/>
      <point x="198" y="213" type="curve" smooth="yes"/>
      <point x="198" y="348"/>
      <point x="305" y="462"/>
      <point x="433" y="462" type="curve" smooth="yes"/>
      <point x="481" y="462"/>
      <point x="532" y="438"/>
      <point x="556" y="404" type="curve"/>
      <point x="615" y="451" type="line"/>
      <point x="576" y="497"/>
      <point x="507" y="529"/>
      <point x="447" y="529" type="curve" smooth="yes"/>
      <point x="269" y="529"/>
      <point x="120" y="382"/>
      <point x="120" y="208" type="curve" smooth="yes"/>
      <point x="120" y="89"/>
      <point x="218" y="-12"/>
    </contour>
  </outline>
</glyph>
<glyph name="circumflexacute.case" format="2">
  <advance width="755"/>
  <outline>
    <contour>
      <point x="789" y="930" type="line"/>
      <point x="712" y="943" type="line"/>
      <point x="570" y="842" type="line"/>
      <point x="628" y="842" type="line"/>
    </contour>
    <contour>
      <point x="611" y="746" type="line"/>
      <point x="529" y="842" type="line"/>
      <point x="459" y="842" type="line"/>
      <point x="339" y="746" type="line"/>
      <point x="398" y="746" type="line"/>
      <point x="489" y="806" type="line"/>
      <point x="555" y="746" type="line"/>
    </contour>
  </outline>
</glyph>
<glyph name="circumflexgrave.case" format="2">
  <advance width="755"/>
  <outline>
    <contour>
      <point x="500" y="930" type="line"/>
      <point x="623" y="842" type="line"/>
      <point x="681" y="842" type="line"/>
      <point x="581" y="943" type="line"/>
    </contour>
    <contour>
      <point x="611" y="746" type="line"/>
      <point x="529" y="842" type="line"/>
      <point x="459" y="842" type="line"/>
      <point x="339" y="746" type="line"/>
      <point x="398" y="746" type="line"/>
      <point x="489" y="806" type="line"/>
      <point x="555" y="746" type="line"/>
    </contour>
  </outline>
</glyph>
<glyph name="circumflexgrave" format="2">
  <advance width="573"/>
  <outline>
    <contour>
      <point x="406" y="839" type="line"/>
      <point x="522" y="713" type="line"/>
      <point x="580" y="713" type="line"/>
      <point x="489" y="857" type="line"/>
    </contour>
    <contour>
      <point x="501" y="576" type="line"/>
      <point x="428" y="713" type="line"/>
      <point x="358" y="713" type="line"/>
      <point x="229" y="576" type="line"/>
      <point x="288" y="576" type="line"/>
      <point x="385" y="662" type="line"/>
      <point x="445" y="576" type="line"/>
    </contour>
  </outline>
</glyph>
<glyph name="circumflexhoi.case" format="2">
  <advance width="755"/>
  <outline>
    <contour>
      <point x="656" y="834" type="line"/>
      <point x="703" y="845"/>
      <point x="751" y="865"/>
      <point x="751" y="905" type="curve" smooth="yes"/>
      <point x="751" y="935"/>
      <point x="704" y="943"/>
      <point x="669" y="943" type="curve" smooth="yes"/>
      <point x="637" y="943"/>
      <point x="606" y="937"/>
      <point x="576" y="928" type="curve"/>
      <point x="573" y="897" type="line"/>
      <point x="597" y="904"/>
      <point x="627" y="912"/>
      <point x="654" y="912" type="curve" smooth="yes"/>
      <point x="670" y="912"/>
      <point x="695" y="910"/>
      <point x="695" y="895" type="curve" smooth="yes"/>
      <point x="695" y="869"/>
      <point x="643" y="854"/>
      <point x="614" y="847" type="curve"/>
      <point x="609" y="818" type="line"/>
      <point x="653" y="818" type="line"/>
    </contour>
    <contour>
      <point x="610" y="746" type="line"/>
      <point x="529" y="842" type="line"/>
      <point x="459" y="842" type="line"/>
      <point x="338" y="746" type="line"/>
      <point x="397" y="746" type="line"/>
      <point x="489" y="806" type="line"/>
      <point x="554" y="746" type="line"/>
    </contour>
  </outline>
</glyph>
<glyph name="circumflexhoi" format="2">
  <advance width="573"/>
  <outline>
    <contour>
      <point x="554" y="701" type="line"/>
      <point x="602" y="717"/>
      <point x="656" y="745"/>
      <point x="656" y="803" type="curve" smooth="yes"/>
      <point x="656" y="846"/>
      <point x="612" y="857"/>
      <point x="577" y="857" type="curve" smooth="yes"/>
      <point x="545" y="857"/>
      <point x="513" y="848"/>
      <point x="483" y="836" type="curve"/>
      <point x="477" y="792" type="line"/>
      <point x="501" y="802"/>
      <point x="533" y="813"/>
      <point x="559" y="813" type="curve" smooth="yes"/>
      <point x="575" y="813"/>
      <point x="599" y="810"/>
      <point x="599" y="789" type="curve" smooth="yes"/>
      <point x="599" y="751"/>
      <point x="543" y="730"/>
      <point x="514" y="720" type="curve"/>
      <point x="506" y="678" type="line"/>
      <point x="550" y="678" type="line"/>
    </contour>
    <contour>
      <point x="501" y="576" type="line"/>
      <point x="428" y="713" type="line"/>
      <point x="358" y="713" type="line"/>
      <point x="229" y="576" type="line"/>
      <point x="288" y="576" type="line"/>
      <point x="385" y="662" type="line"/>
      <point x="445" y="576" type="line"/>
    </contour>
  </outline>
</glyph>
<glyph name="circumflextilde.case" format="2">
  <advance width="755"/>
  <outline>
    <contour>
      <point x="443" y="909" type="curve" smooth="yes"/>
      <point x="472" y="909"/>
      <point x="514" y="862"/>
      <point x="563" y="862" type="curve" smooth="yes"/>
      <point x="630" y="862"/>
      <point x="661" y="907"/>
      <point x="676" y="946" type="curve"/>
      <point x="631" y="951" type="line"/>
      <point x="623" y="931"/>
      <point x="606" y="903"/>
      <point x="571" y="903" type="curve" smooth="yes"/>
      <point x="542" y="903"/>
      <point x="501" y="949"/>
      <point x="452" y="949" type="curve" smooth="yes"/>
      <point x="385" y="949"/>
      <point x="354" y="904"/>
      <point x="338" y="866" type="curve"/>
      <point x="384" y="861" type="line"/>
      <point x="392" y="881"/>
      <point x="408" y="909"/>
    </contour>
    <contour>
      <point x="611" y="746" type="line"/>
      <point x="529" y="842" type="line"/>
      <point x="459" y="842" type="line"/>
      <point x="339" y="746" type="line"/>
      <point x="398" y="746" type="line"/>
      <point x="489" y="806" type="line"/>
      <point x="555" y="746" type="line"/>
    </contour>
  </outline>
</glyph>
<glyph name="circumflextilde" format="2">
  <advance width="573"/>
  <outline>
    <contour>
      <point x="348" y="808" type="curve" smooth="yes"/>
      <point x="377" y="808"/>
      <point x="414" y="742"/>
      <point x="463" y="742" type="curve" smooth="yes"/>
      <point x="530" y="742"/>
      <point x="565" y="806"/>
      <point x="584" y="861" type="curve"/>
      <point x="539" y="868" type="line"/>
      <point x="529" y="840"/>
      <point x="510" y="800"/>
      <point x="475" y="800" type="curve" smooth="yes"/>
      <point x="446" y="800"/>
      <point x="409" y="866"/>
      <point x="360" y="866" type="curve" smooth="yes"/>
      <point x="293" y="866"/>
      <point x="258" y="802"/>
      <point x="239" y="747" type="curve"/>
      <point x="284" y="740" type="line"/>
      <point x="294" y="768"/>
      <point x="313" y="808"/>
    </contour>
    <contour>
      <point x="501" y="576" type="line"/>
      <point x="428" y="713" type="line"/>
      <point x="358" y="713" type="line"/>
      <point x="229" y="576" type="line"/>
      <point x="288" y="576" type="line"/>
      <point x="385" y="662" type="line"/>
      <point x="445" y="576" type="line"/>
    </contour>
  </outline>
</glyph>
<glyph name="colon.tf" format="2">
  <advance width="315"/>
  <outline>
    <contour>
      <point x="194" y="403" type="curve" smooth="yes"/>
      <point x="224" y="403"/>
      <point x="252" y="432"/>
      <point x="252" y="464" type="curve" smooth="yes"/>
      <point x="252" y="490"/>
      <point x="233" y="511"/>
      <point x="205" y="511" type="curve" smooth="yes"/>
      <point x="175" y="511"/>
      <point x="145" y="487"/>
      <point x="145" y="451" type="curve" smooth="yes"/>
      <point x="145" y="424"/>
      <point x="164" y="403"/>
    </contour>
    <contour>
      <point x="107" y="-12" type="curve" smooth="yes"/>
      <point x="138" y="-12"/>
      <point x="166" y="17"/>
      <point x="166" y="49" type="curve" smooth="yes"/>
      <point x="166" y="75"/>
      <point x="147" y="96"/>
      <point x="119" y="96" type="curve" smooth="yes"/>
      <point x="89" y="96"/>
      <point x="59" y="72"/>
      <point x="59" y="36" type="curve" smooth="yes"/>
      <point x="59" y="9"/>
      <point x="78" y="-12"/>
    </contour>
  </outline>
</glyph>
<glyph name="comma.tf" format="2">
  <advance width="315"/>
  <outline>
    <contour>
      <point x="59" y="-135" type="line"/>
      <point x="119" y="-75"/>
      <point x="167" y="-25"/>
      <point x="167" y="35" type="curve" smooth="yes"/>
      <point x="167" y="71"/>
      <point x="149" y="96"/>
      <point x="115" y="96" type="curve" smooth="yes"/>
      <point x="85" y="96"/>
      <point x="55" y="73"/>
      <point x="55" y="36" type="curve" smooth="yes"/>
      <point x="55" y="9"/>
      <point x="74" y="-9"/>
      <point x="99" y="-9" type="curve"/>
      <point x="82" y="-40"/>
      <point x="58" y="-72"/>
      <point x="24" y="-103" type="curve"/>
    </contour>
  </outline>
</glyph>
<glyph name="descender" format="2">
  <advance width="338"/>
  <anchor x="132" y="260" name="loop_left"/>
  <anchor x="205" y="253" name="loop_right"/>
  <outline>
    <contour>
      <point x="117" y="-172" type="line"/>
      <point x="260" y="517" type="line"/>
      <point x="185" y="517" type="line"/>
      <point x="42" y="-172" type="line"/>
    </contour>
  </outline>
</glyph>
<glyph name="divide.tf" format="2">
  <advance width="700"/>
  <outline>
    <contour>
      <point x="585" y="297" type="line"/>
      <point x="601" y="371" type="line"/>
      <point x="142" y="371" type="line"/>
      <point x="126" y="297" type="line"/>
    </contour>
    <contour>
      <point x="326" y="118" type="curve" smooth="yes"/>
      <point x="356" y="118"/>
      <point x="384" y="147"/>
      <point x="384" y="179" type="curve" smooth="yes"/>
      <point x="384" y="205"/>
      <point x="365" y="226"/>
      <point x="337" y="226" type="curve" smooth="yes"/>
      <point x="307" y="226"/>
      <point x="277" y="202"/>
      <point x="277" y="166" type="curve" smooth="yes"/>
      <point x="277" y="139"/>
      <point x="296" y="118"/>
    </contour>
    <contour>
      <point x="393" y="442" type="curve" smooth="yes"/>
      <point x="422" y="442"/>
      <point x="452" y="470"/>
      <point x="452" y="502" type="curve" smooth="yes"/>
      <point x="452" y="528"/>
      <point x="432" y="550"/>
      <point x="404" y="550" type="curve" smooth="yes"/>
      <point x="374" y="550"/>
      <point x="344" y="526"/>
      <point x="344" y="490" type="curve" smooth="yes"/>
      <point x="344" y="463"/>
      <point x="363" y="442"/>
    </contour>
  </outline>
</glyph>
<glyph name="dollar.tf.rvrn" format="2">
  <advance width="700"/>
  <anchor x="303" y="0" name="bottom"/>
  <anchor x="442" y="687" name="top"/>
  <outline>
    <contour>
      <point x="328" y="-74" type="line"/>
      <point x="346" y="13" type="line"/>
      <point x="268" y="13" type="line"/>
      <point x="250" y="-74" type="line"/>
    </contour>
    <contour>
      <point x="483" y="674" type="line"/>
      <point x="501" y="759" type="line"/>
      <point x="423" y="759" type="line"/>
      <point x="405" y="674" type="line"/>
    </contour>
    <contour>
      <point x="311" y="-11" type="curve" smooth="yes"/>
      <point x="476" y="-11"/>
      <point x="592" y="86"/>
      <point x="592" y="222" type="curve" smooth="yes"/>
      <point x="592" y="305"/>
      <point x="537" y="352"/>
      <point x="399" y="385" type="curve" smooth="yes"/>
      <point x="287" y="414"/>
      <point x="242" y="442"/>
      <point x="242" y="486" type="curve" smooth="yes"/>
      <point x="242" y="570"/>
      <point x="317" y="629"/>
      <point x="423" y="629" type="curve" smooth="yes"/>
      <point x="484" y="629"/>
      <point x="557" y="593"/>
      <point x="598" y="543" type="curve"/>
      <point x="655" y="600" type="line"/>
      <point x="602" y="659"/>
      <point x="510" y="700"/>
      <point x="431" y="700" type="curve" smooth="yes"/>
      <point x="273" y="700"/>
      <point x="162" y="603"/>
      <point x="162" y="467" type="curve" smooth="yes"/>
      <point x="162" y="388"/>
      <point x="217" y="344"/>
      <point x="356" y="311" type="curve" smooth="yes"/>
      <point x="467" y="283"/>
      <point x="511" y="253"/>
      <point x="511" y="207" type="curve" smooth="yes"/>
      <point x="511" y="121"/>
      <point x="431" y="60"/>
      <point x="317" y="60" type="curve" smooth="yes"/>
      <point x="244" y="60"/>
      <point x="161" y="100"/>
      <point x="116" y="157" type="curve"/>
      <point x="58" y="100" type="line"/>
      <point x="112" y="35"/>
      <point x="216" y="-11"/>
    </contour>
  </outline>
</glyph>
<glyph name="dong.tf" format="2">
  <advance width="700"/>
  <outline>
    <contour>
      <point x="523" y="-75" type="line"/>
      <point x="53" y="-75" type="line"/>
      <point x="39" y="-142" type="line"/>
      <point x="509" y="-142" type="line"/>
    </contour>
    <contour>
      <point x="669" y="699" type="line"/>
      <point x="594" y="699" type="line"/>
      <point x="581" y="635" type="line"/>
      <point x="409" y="635" type="line"/>
      <point x="398" y="585" type="line"/>
      <point x="570" y="585" type="line"/>
      <point x="534" y="408" type="line"/>
      <point x="507" y="474"/>
      <point x="449" y="529"/>
      <point x="375" y="529" type="curve" smooth="yes"/>
      <point x="195" y="529"/>
      <point x="69" y="365"/>
      <point x="69" y="194" type="curve" smooth="yes"/>
      <point x="69" y="86"/>
      <point x="151" y="-12"/>
      <point x="263" y="-12" type="curve" smooth="yes"/>
      <point x="349" y="-12"/>
      <point x="417" y="30"/>
      <point x="469" y="96" type="curve"/>
      <point x="449" y="0" type="line"/>
      <point x="524" y="0" type="line"/>
      <point x="645" y="585" type="line"/>
      <point x="708" y="585" type="line"/>
      <point x="719" y="635" type="line"/>
      <point x="656" y="635" type="line"/>
    </contour>
    <contour>
      <point x="277" y="55" type="curve" smooth="yes"/>
      <point x="199" y="55"/>
      <point x="147" y="125"/>
      <point x="147" y="199" type="curve" smooth="yes"/>
      <point x="147" y="321"/>
      <point x="225" y="462"/>
      <point x="361" y="462" type="curve" smooth="yes"/>
      <point x="440" y="462"/>
      <point x="509" y="398"/>
      <point x="509" y="318" type="curve" smooth="yes"/>
      <point x="509" y="188"/>
      <point x="416" y="55"/>
    </contour>
  </outline>
</glyph>
<glyph name="eight.tf" format="2">
  <advance width="700"/>
  <outline>
    <contour>
      <point x="298" y="-12" type="curve" smooth="yes"/>
      <point x="444" y="-12"/>
      <point x="586" y="74"/>
      <point x="586" y="206" type="curve" smooth="yes"/>
      <point x="586" y="278"/>
      <point x="535" y="329"/>
      <point x="469" y="353" type="curve"/>
      <point x="565" y="386"/>
      <point x="640" y="450"/>
      <point x="640" y="544" type="curve" smooth="yes"/>
      <point x="640" y="640"/>
      <point x="548" y="699"/>
      <point x="435" y="699" type="curve" smooth="yes"/>
      <point x="307" y="699"/>
      <point x="168" y="619"/>
      <point x="168" y="490" type="curve" smooth="yes"/>
      <point x="168" y="426"/>
      <point x="211" y="382"/>
      <point x="271" y="357" type="curve"/>
      <point x="165" y="325"/>
      <point x="79" y="252"/>
      <point x="79" y="149" type="curve" smooth="yes"/>
      <point x="79" y="51"/>
      <point x="169" y="-12"/>
    </contour>
    <contour>
      <point x="302" y="59" type="curve" smooth="yes"/>
      <point x="219" y="59"/>
      <point x="159" y="98"/>
      <point x="159" y="159" type="curve" smooth="yes"/>
      <point x="159" y="248"/>
      <point x="277" y="316"/>
      <point x="367" y="318" type="curve"/>
      <point x="430" y="316"/>
      <point x="509" y="278"/>
      <point x="509" y="211" type="curve" smooth="yes"/>
      <point x="509" y="123"/>
      <point x="405" y="59"/>
    </contour>
    <contour>
      <point x="370" y="386" type="curve"/>
      <point x="314" y="390"/>
      <point x="244" y="420"/>
      <point x="244" y="483" type="curve" smooth="yes"/>
      <point x="244" y="564"/>
      <point x="337" y="628"/>
      <point x="432" y="628" type="curve" smooth="yes"/>
      <point x="507" y="628"/>
      <point x="560" y="590"/>
      <point x="560" y="534" type="curve" smooth="yes"/>
      <point x="560" y="450"/>
      <point x="456" y="391"/>
    </contour>
  </outline>
</glyph>
<glyph name="equal.tf" format="2">
  <advance width="700"/>
  <outline>
    <contour>
      <point x="610" y="407" type="line"/>
      <point x="626" y="481" type="line"/>
      <point x="167" y="481" type="line"/>
      <point x="151" y="407" type="line"/>
    </contour>
    <contour>
      <point x="564" y="187" type="line"/>
      <point x="580" y="261" type="line"/>
      <point x="121" y="261" type="line"/>
      <point x="105" y="187" type="line"/>
    </contour>
  </outline>
</glyph>
<glyph name="five.tf" format="2">
  <advance width="700"/>
  <outline>
    <contour>
      <point x="294" y="-12" type="curve" smooth="yes"/>
      <point x="453" y="-12"/>
      <point x="585" y="107"/>
      <point x="585" y="259" type="curve" smooth="yes"/>
      <point x="585" y="366"/>
      <point x="503" y="428"/>
      <point x="392" y="428" type="curve" smooth="yes"/>
      <point x="332" y="428"/>
      <point x="281" y="409"/>
      <point x="239" y="384" type="curve"/>
      <point x="296" y="613" type="line"/>
      <point x="626" y="613" type="line"/>
      <point x="641" y="687" type="line"/>
      <point x="235" y="687" type="line"/>
      <point x="152" y="334" type="line"/>
      <point x="205" y="304" type="line"/>
      <point x="255" y="336"/>
      <point x="311" y="359"/>
      <point x="373" y="359" type="curve" smooth="yes"/>
      <point x="454" y="359"/>
      <point x="505" y="315"/>
      <point x="505" y="247" type="curve" smooth="yes"/>
      <point x="505" y="147"/>
      <point x="411" y="58"/>
      <point x="301" y="58" type="curve" smooth="yes"/>
      <point x="228" y="58"/>
      <point x="171" y="94"/>
      <point x="130" y="152" type="curve"/>
      <point x="71" y="99" type="line"/>
      <point x="115" y="35"/>
      <point x="186" y="-12"/>
    </contour>
  </outline>
</glyph>
<glyph name="four.tf" format="2">
  <advance width="700"/>
  <outline>
    <contour>
      <point x="459" y="0" type="line"/>
      <point x="494" y="167" type="line"/>
      <point x="597" y="167" type="line"/>
      <point x="612" y="238" type="line"/>
      <point x="509" y="238" type="line"/>
      <point x="602" y="687" type="line"/>
      <point x="511" y="687" type="line"/>
      <point x="76" y="232" type="line"/>
      <point x="74" y="167" type="line"/>
      <point x="416" y="167" type="line"/>
      <point x="381" y="0" type="line"/>
    </contour>
    <contour>
      <point x="506" y="593" type="line"/>
      <point x="431" y="238" type="line"/>
      <point x="168" y="238" type="line"/>
    </contour>
  </outline>
</glyph>
<glyph name="greater.tf" format="2">
  <advance width="700"/>
  <outline>
    <contour>
      <point x="593" y="314" type="line"/>
      <point x="605" y="373" type="line"/>
      <point x="197" y="599" type="line"/>
      <point x="183" y="529" type="line"/>
      <point x="525" y="344" type="line"/>
      <point x="105" y="159" type="line"/>
      <point x="91" y="88" type="line"/>
    </contour>
  </outline>
</glyph>
<glyph name="hyphen.tf" format="2">
  <advance width="355"/>
  <outline>
    <contour>
      <point x="301" y="235" type="line"/>
      <point x="317" y="308" type="line"/>
      <point x="58" y="308" type="line"/>
      <point x="42" y="235" type="line"/>
    </contour>
  </outline>
</glyph>
<glyph name="k_arms" format="2">
  <advance width="419"/>
  <anchor x="-5" y="127" name="k_arms"/>
  <outline>
    <contour>
      <point x="342" y="0" type="line"/>
      <point x="182" y="280" type="line"/>
      <point x="465" y="517" type="line"/>
      <point x="367" y="517" type="line"/>
      <point x="13" y="221" type="line"/>
      <point x="-5" y="127" type="line"/>
      <point x="120" y="229" type="line"/>
      <point x="251" y="0" type="line"/>
    </contour>
  </outline>
</glyph>
<glyph name="less.tf" format="2">
  <advance width="700"/>
  <outline>
    <contour>
      <point x="552" y="159" type="line"/>
      <point x="210" y="344" type="line"/>
      <point x="630" y="529" type="line"/>
      <point x="644" y="599" type="line"/>
      <point x="142" y="373" type="line"/>
      <point x="130" y="314" type="line"/>
      <point x="538" y="88" type="line"/>
    </contour>
  </outline>
</glyph>
<glyph name="lowercase_r_shoulder" format="2">
  <advance width="308"/>
  <anchor x="77" y="287" name="_r_shoulder"/>
  <outline>
    <contour>
      <point x="77" y="287" type="line"/>
      <point x="98" y="388"/>
      <point x="199" y="462"/>
      <point x="316" y="462" type="curve"/>
      <point x="325" y="529" type="line"/>
      <point x="198" y="529"/>
      <point x="96" y="453"/>
      <point x="73" y="342" type="curve"/>
    </contour>
  </outline>
</glyph>
<glyph name="minus.tf" format="2">
  <advance width="700"/>
  <outline>
    <contour>
      <point x="587" y="297" type="line"/>
      <point x="603" y="371" type="line"/>
      <point x="144" y="371" type="line"/>
      <point x="128" y="297" type="line"/>
    </contour>
  </outline>
</glyph>
<glyph name="multiply.tf" format="2">
  <advance width="700"/>
  <outline>
    <contour>
      <point x="582" y="470" type="line"/>
      <point x="539" y="523" type="line"/>
      <point x="149" y="198" type="line"/>
      <point x="193" y="146" type="line"/>
    </contour>
    <contour>
      <point x="526" y="199" type="line"/>
      <point x="267" y="523" type="line"/>
      <point x="205" y="470" type="line"/>
      <point x="464" y="146" type="line"/>
    </contour>
  </outline>
</glyph>
<glyph name="nine.tf" format="2">
  <advance width="700"/>
  <outline>
    <contour>
      <point x="425" y="699" type="curve" smooth="yes"/>
      <point x="271" y="699"/>
      <point x="137" y="579"/>
      <point x="137" y="428" type="curve" smooth="yes"/>
      <point x="137" y="320"/>
      <point x="220" y="258"/>
      <point x="332" y="258" type="curve" smooth="yes"/>
      <point x="418" y="258"/>
      <point x="503" y="302"/>
      <point x="559" y="381" type="curve"/>
      <point x="562" y="487" type="line"/>
      <point x="539" y="394"/>
      <point x="449" y="325"/>
      <point x="349" y="325" type="curve" smooth="yes"/>
      <point x="270" y="325"/>
      <point x="215" y="366"/>
      <point x="215" y="437" type="curve" smooth="yes"/>
      <point x="215" y="536"/>
      <point x="313" y="632"/>
      <point x="423" y="632" type="curve" smooth="yes"/>
      <point x="515" y="632"/>
      <point x="554" y="562"/>
      <point x="554" y="463" type="curve" smooth="yes"/>
      <point x="554" y="285"/>
      <point x="432" y="59"/>
      <point x="276" y="59" type="curve" smooth="yes"/>
      <point x="213" y="59"/>
      <point x="175" y="87"/>
      <point x="140" y="129" type="curve"/>
      <point x="89" y="72" type="line"/>
      <point x="130" y="23"/>
      <point x="184" y="-12"/>
      <point x="271" y="-12" type="curve" smooth="yes"/>
      <point x="475" y="-12"/>
      <point x="632" y="241"/>
      <point x="632" y="471" type="curve" smooth="yes"/>
      <point x="632" y="605"/>
      <point x="572" y="699"/>
    </contour>
  </outline>
</glyph>
<glyph name="one.tf" format="2">
  <advance width="700"/>
  <outline>
    <contour>
      <point x="395" y="0" type="line"/>
      <point x="538" y="687" type="line"/>
      <point x="475" y="687" type="line"/>
      <point x="283" y="572" type="line"/>
      <point x="306" y="514" type="line"/>
      <point x="441" y="592" type="line"/>
      <point x="317" y="0" type="line"/>
    </contour>
  </outline>
</glyph>
<glyph name="period.tf" format="2">
  <advance width="315"/>
  <outline>
    <contour>
      <point x="107" y="-12" type="curve" smooth="yes"/>
      <point x="138" y="-12"/>
      <point x="166" y="17"/>
      <point x="166" y="49" type="curve" smooth="yes"/>
      <point x="166" y="75"/>
      <point x="147" y="96"/>
      <point x="119" y="96" type="curve" smooth="yes"/>
      <point x="89" y="96"/>
      <point x="59" y="72"/>
      <point x="59" y="36" type="curve" smooth="yes"/>
      <point x="59" y="9"/>
      <point x="78" y="-12"/>
    </contour>
  </outline>
</glyph>
<glyph name="plus.tf" format="2">
  <advance width="700"/>
  <outline>
    <contour>
      <point x="587" y="297" type="line"/>
      <point x="603" y="371" type="line"/>
      <point x="144" y="371" type="line"/>
      <point x="128" y="297" type="line"/>
    </contour>
    <contour>
      <point x="355" y="105" type="line"/>
      <point x="451" y="564" type="line"/>
      <point x="376" y="564" type="line"/>
      <point x="280" y="105" type="line"/>
    </contour>
  </outline>
</glyph>
<glyph name="ringacute.case" format="2">
  <advance width="282"/>
  <anchor x="94" y="539" name="_top"/>
  <anchor x="71" y="800" name="top"/>
  <outline>
    <contour>
      <point x="109" y="589" type="curve" smooth="yes"/>
      <point x="173" y="589"/>
      <point x="231" y="630"/>
      <point x="227" y="677" type="curve" smooth="yes"/>
      <point x="224" y="709"/>
      <point x="189" y="734"/>
      <point x="139" y="734" type="curve" smooth="yes"/>
      <point x="75" y="734"/>
      <point x="16" y="694"/>
      <point x="20" y="647" type="curve" smooth="yes"/>
      <point x="23" y="615"/>
      <point x="59" y="589"/>
    </contour>
    <contour>
      <point x="115" y="620" type="curve" smooth="yes"/>
      <point x="87" y="620"/>
      <point x="66" y="635"/>
      <point x="64" y="654" type="curve" smooth="yes"/>
      <point x="62" y="680"/>
      <point x="97" y="703"/>
      <point x="133" y="703" type="curve" smooth="yes"/>
      <point x="161" y="703"/>
      <point x="181" y="689"/>
      <point x="183" y="670" type="curve" smooth="yes"/>
      <point x="185" y="644"/>
      <point x="151" y="620"/>
    </contour>
    <contour>
      <point x="125" y="711" type="line"/>
      <point x="285" y="799" type="line"/>
      <point x="207" y="812" type="line"/>
      <point x="65" y="711" type="line"/>
    </contour>
  </outline>
</glyph>
<glyph name="semicolon.tf" format="2">
  <advance width="315"/>
  <outline>
    <contour>
      <point x="191" y="403" type="curve" smooth="yes"/>
      <point x="222" y="403"/>
      <point x="250" y="432"/>
      <point x="250" y="464" type="curve" smooth="yes"/>
      <point x="250" y="490"/>
      <point x="231" y="511"/>
      <point x="203" y="511" type="curve" smooth="yes"/>
      <point x="173" y="511"/>
      <point x="143" y="487"/>
      <point x="143" y="451" type="curve" smooth="yes"/>
      <point x="143" y="424"/>
      <point x="162" y="403"/>
    </contour>
    <contour>
      <point x="61" y="-135" type="line"/>
      <point x="121" y="-75"/>
      <point x="169" y="-25"/>
      <point x="169" y="35" type="curve" smooth="yes"/>
      <point x="169" y="71"/>
      <point x="151" y="96"/>
      <point x="117" y="96" type="curve" smooth="yes"/>
      <point x="87" y="96"/>
      <point x="57" y="73"/>
      <point x="57" y="36" type="curve" smooth="yes"/>
      <point x="57" y="9"/>
      <point x="76" y="-9"/>
      <point x="101" y="-9" type="curve"/>
      <point x="84" y="-40"/>
      <point x="60" y="-72"/>
      <point x="26" y="-103" type="curve"/>
    </contour>
  </outline>
</glyph>
<glyph name="seven.tf" format="2">
  <advance width="700"/>
  <outline>
    <contour>
      <point x="233" y="0" type="line"/>
      <point x="660" y="628" type="line"/>
      <point x="671" y="687" type="line"/>
      <point x="206" y="687" type="line"/>
      <point x="191" y="613" type="line"/>
      <point x="562" y="613" type="line"/>
      <point x="142" y="0" type="line"/>
    </contour>
  </outline>
</glyph>
<glyph name="six.tf" format="2">
  <advance width="700"/>
  <outline>
    <contour>
      <point x="310" y="-12" type="curve" smooth="yes"/>
      <point x="464" y="-12"/>
      <point x="598" y="108"/>
      <point x="598" y="259" type="curve" smooth="yes"/>
      <point x="598" y="367"/>
      <point x="515" y="429"/>
      <point x="403" y="429" type="curve" smooth="yes"/>
      <point x="317" y="429"/>
      <point x="232" y="385"/>
      <point x="176" y="306" type="curve"/>
      <point x="173" y="200" type="line"/>
      <point x="196" y="293"/>
      <point x="286" y="362"/>
      <point x="386" y="362" type="curve" smooth="yes"/>
      <point x="465" y="362"/>
      <point x="520" y="321"/>
      <point x="520" y="250" type="curve" smooth="yes"/>
      <point x="520" y="151"/>
      <point x="422" y="55"/>
      <point x="312" y="55" type="curve" smooth="yes"/>
      <point x="220" y="55"/>
      <point x="181" y="125"/>
      <point x="181" y="224" type="curve" smooth="yes"/>
      <point x="181" y="402"/>
      <point x="303" y="628"/>
      <point x="459" y="628" type="curve" smooth="yes"/>
      <point x="522" y="628"/>
      <point x="560" y="600"/>
      <point x="595" y="558" type="curve"/>
      <point x="646" y="615" type="line"/>
      <point x="605" y="664"/>
      <point x="551" y="699"/>
      <point x="464" y="699" type="curve" smooth="yes"/>
      <point x="260" y="699"/>
      <point x="103" y="446"/>
      <point x="103" y="216" type="curve" smooth="yes"/>
      <point x="103" y="82"/>
      <point x="163" y="-12"/>
    </contour>
  </outline>
</glyph>
<glyph name="sterling.tf" format="2">
  <advance width="700"/>
  <outline>
    <contour>
      <point x="556" y="0" type="line"/>
      <point x="572" y="74" type="line"/>
      <point x="175" y="74" type="line"/>
      <point x="193" y="50" type="line"/>
      <point x="277" y="460" type="line" smooth="yes"/>
      <point x="297" y="557"/>
      <point x="373" y="628"/>
      <point x="457" y="628" type="curve" smooth="yes"/>
      <point x="527" y="628"/>
      <point x="581" y="590"/>
      <point x="586" y="532" type="curve"/>
      <point x="652" y="582" type="line"/>
      <point x="633" y="649"/>
      <point x="555" y="699"/>
      <point x="460" y="699" type="curve" smooth="yes"/>
      <point x="336" y="699"/>
      <point x="229" y="604"/>
      <point x="200" y="466" type="curve" smooth="yes"/>
      <point x="118" y="74" type="line"/>
      <point x="46" y="38" type="line"/>
      <point x="39" y="0" type="line"/>
    </contour>
    <contour>
      <point x="438" y="261" type="line"/>
      <point x="452" y="328" type="line"/>
      <point x="110" y="328" type="line"/>
      <point x="96" y="261" type="line"/>
    </contour>
  </outline>
</glyph>
<glyph name="thorn_stem" format="2">
  <advance width="248"/>
  <anchor x="160" y="253" name="loop_right"/>
  <outline>
    <contour>
      <point x="72" y="-172" type="line"/>
      <point x="253" y="699" type="line"/>
      <point x="178" y="699" type="line"/>
      <point x="-3" y="-172" type="line"/>
    </contour>
  </outline>
</glyph>
<glyph name="three.tf" format="2">
  <advance width="700"/>
  <outline>
    <contour>
      <point x="300" y="-12" type="curve" smooth="yes"/>
      <point x="446" y="-12"/>
      <point x="578" y="82"/>
      <point x="578" y="216" type="curve" smooth="yes"/>
      <point x="578" y="295"/>
      <point x="518" y="337"/>
      <point x="461" y="350" type="curve"/>
      <point x="558" y="377"/>
      <point x="631" y="446"/>
      <point x="631" y="544" type="curve" smooth="yes"/>
      <point x="631" y="637"/>
      <point x="553" y="699"/>
      <point x="434" y="699" type="curve" smooth="yes"/>
      <point x="330" y="699"/>
      <point x="245" y="649"/>
      <point x="179" y="580" type="curve"/>
      <point x="224" y="529" type="line"/>
      <point x="284" y="588"/>
      <point x="348" y="628"/>
      <point x="427" y="628" type="curve" smooth="yes"/>
      <point x="501" y="628"/>
      <point x="551" y="589"/>
      <point x="551" y="532" type="curve" smooth="yes"/>
      <point x="551" y="442"/>
      <point x="459" y="382"/>
      <point x="358" y="383" type="curve" smooth="yes"/>
      <point x="287" y="384" type="line"/>
      <point x="272" y="312" type="line"/>
      <point x="348" y="312" type="line" smooth="yes"/>
      <point x="444" y="312"/>
      <point x="501" y="282"/>
      <point x="501" y="220" type="curve" smooth="yes"/>
      <point x="501" y="129"/>
      <point x="410" y="59"/>
      <point x="304" y="59" type="curve" smooth="yes"/>
      <point x="223" y="59"/>
      <point x="165" y="97"/>
      <point x="132" y="155" type="curve"/>
      <point x="71" y="108" type="line"/>
      <point x="108" y="42"/>
      <point x="185" y="-12"/>
    </contour>
  </outline>
</glyph>
<glyph name="two.tf" format="2">
  <advance width="700"/>
  <outline>
    <contour>
      <point x="531" y="0" type="line"/>
      <point x="547" y="74" type="line"/>
      <point x="199" y="74" type="line"/>
      <point x="413" y="228" type="line" smooth="yes"/>
      <point x="532" y="316"/>
      <point x="632" y="411"/>
      <point x="632" y="535" type="curve" smooth="yes"/>
      <point x="632" y="636"/>
      <point x="552" y="699"/>
      <point x="445" y="699" type="curve" smooth="yes"/>
      <point x="340" y="699"/>
      <point x="254" y="651"/>
      <point x="180" y="570" type="curve"/>
      <point x="229" y="520" type="line"/>
      <point x="288" y="584"/>
      <point x="356" y="629"/>
      <point x="439" y="629" type="curve" smooth="yes"/>
      <point x="501" y="629"/>
      <point x="553" y="593"/>
      <point x="553" y="529" type="curve" smooth="yes"/>
      <point x="553" y="438"/>
      <point x="462" y="352"/>
      <point x="365" y="281" type="curve" smooth="yes"/>
      <point x="70" y="65" type="line"/>
      <point x="58" y="0" type="line"/>
    </contour>
  </outline>
</glyph>
<glyph name="yen.tf" format="2">
  <advance width="700"/>
  <anchor x="430" y="687" name="top"/>
  <outline>
    <contour>
      <point x="572" y="115" type="line"/>
      <point x="586" y="182" type="line"/>
      <point x="90" y="182" type="line"/>
      <point x="76" y="115" type="line"/>
    </contour>
    <contour>
      <point x="603" y="262" type="line"/>
      <point x="617" y="329" type="line"/>
      <point x="121" y="329" type="line"/>
      <point x="107" y="262" type="line"/>
    </contour>
    <contour>
      <point x="336" y="0" type="line"/>
      <point x="396" y="280" type="line"/>
      <point x="756" y="687" type="line"/>
      <point x="660" y="687" type="line"/>
      <point x="361" y="347" type="line"/>
      <point x="200" y="687" type="line"/>
      <point x="121" y="687" type="line"/>
      <point x="314" y="280" type="line"/>
      <point x="254" y="0" type="line"/>
    </contour>
  </outline>
</glyph>
<glyph name="zero.tf" format="2">
  <advance width="700"/>
  <outline>
    <contour>
      <point x="299" y="-12" type="curve" smooth="yes"/>
      <point x="511" y="-12"/>
      <point x="663" y="218"/>
      <point x="663" y="440" type="curve" smooth="yes"/>
      <point x="663" y="596"/>
      <point x="577" y="699"/>
      <point x="436" y="699" type="curve" smooth="yes"/>
      <point x="225" y="699"/>
      <point x="72" y="469"/>
      <point x="72" y="248" type="curve" smooth="yes"/>
      <point x="72" y="91"/>
      <point x="158" y="-12"/>
    </contour>
    <contour>
      <point x="303" y="60" type="curve" smooth="yes"/>
      <point x="207" y="60"/>
      <point x="150" y="136"/>
      <point x="150" y="251" type="curve" smooth="yes"/>
      <point x="150" y="422"/>
      <point x="267" y="627"/>
      <point x="432" y="627" type="curve" smooth="yes"/>
      <point x="528" y="627"/>
      <point x="585" y="552"/>
      <point x="585" y="438" type="curve" smooth="yes"/>
      <point x="585" y="265"/>
      <point x="469" y="60"/>
    </contour>
  </outline>
</glyph>
